<?xml version="1.0" encoding="iso-8859-1"?>
<!-- Generator: Adobe Illustrator 16.0.0, SVG Export Plug-In . SVG Version: 6.00 Build 0)  -->
<!DOCTYPE svg PUBLIC "-//W3C//DTD SVG 1.1//EN" "http://www.w3.org/Graphics/SVG/1.1/DTD/svg11.dtd">
<svg version="1.1" id="Capa_1" xmlns="http://www.w3.org/2000/svg" xmlns:xlink="http://www.w3.org/1999/xlink" x="0px" y="0px"
	 width="512px" height="512px" viewBox="0 0 512 512" style="enable-background:new 0 0 512 512;" xml:space="preserve">
<g>
	<g>
		<path d="M497.938,430.062l-62.28-62.28c-18.156,26.655-41.22,49.719-67.875,67.875l62.28,62.28c18.75,18.75,49.156,18.75,67.875,0
			C516.688,479.188,516.688,448.812,497.938,430.062z"/>
		<path d="M448,224C448,100.281,347.719,0,224,0S0,100.281,0,224s100.281,224,224,224C347.719,448,448,347.719,448,224z M224,400
			c-97.047,0-176-78.969-176-176c0-97.047,78.953-176,176-176c97.031,0,176,78.953,176,176C400,321.031,321.031,400,224,400z"/>
	</g>
</g>
<g>
</g>
<g>
</g>
<g>
</g>
<g>
</g>
<g>
</g>
<g>
</g>
<g>
</g>
<g>
</g>
<g>
</g>
<g>
</g>
<g>
</g>
<g>
</g>
<g>
</g>
<g>
</g>
<g>
</g>
</svg>
