<?xml version="1.0" encoding="iso-8859-1"?>
<!-- Generator: Adobe Illustrator 19.0.0, SVG Export Plug-In . SVG Version: 6.00 Build 0)  -->
<svg version="1.1" id="Layer_1" xmlns="http://www.w3.org/2000/svg" xmlns:xlink="http://www.w3.org/1999/xlink" x="0px" y="0px"
	 viewBox="0 0 512.002 512.002" style="enable-background:new 0 0 512.002 512.002;" xml:space="preserve">
<rect x="300.342" y="275.025" transform="matrix(-0.7071 0.7071 -0.7071 -0.7071 745.4655 308.7848)" style="fill:#A7AFBA;" width="16.879" height="67.516"/>
<path style="fill:#FFA72E;" d="M171.606,343.209c-94.623,0-171.604-76.981-171.604-171.604S76.983,0,171.606,0
	s171.604,76.981,171.604,171.604S266.23,343.209,171.606,343.209z"/>
<path style="fill:#FFFFFF;" d="M171.606,309.451c-76.009,0-137.846-61.837-137.846-137.846S95.597,33.758,171.606,33.758
	s137.846,61.837,137.846,137.846S247.615,309.451,171.606,309.451z"/>
<path style="fill:#D8DBE2;" d="M78.771,180.044c-4.662,0-8.44-3.779-8.44-8.44c0-55.843,45.432-101.275,101.275-101.275
	c4.662,0,8.44,3.779,8.44,8.44s-3.778,8.44-8.44,8.44c-46.536,0-84.396,37.86-84.396,84.396
	C87.211,176.265,83.433,180.044,78.771,180.044z"/>
<rect x="372.656" y="290.851" transform="matrix(-0.7071 0.7071 -0.7071 -0.7071 981.1705 406.4168)" style="fill:#4AAEE2;" width="67.516" height="231.129"/>
<path style="fill:#D8DBE2;" d="M356.524,304.802l-51.72,51.72c-3.296,3.296-8.64,3.296-11.936,0c-3.296-3.296-3.296-8.639,0-11.936
	l51.72-51.72c3.296-3.296,8.64-3.296,11.936,0C359.82,296.162,359.82,301.506,356.524,304.802z"/>
<g>
</g>
<g>
</g>
<g>
</g>
<g>
</g>
<g>
</g>
<g>
</g>
<g>
</g>
<g>
</g>
<g>
</g>
<g>
</g>
<g>
</g>
<g>
</g>
<g>
</g>
<g>
</g>
<g>
</g>
</svg>
