<?xml version="1.0" encoding="iso-8859-1"?>
<!-- Generator: Adobe Illustrator 19.0.0, SVG Export Plug-In . SVG Version: 6.00 Build 0)  -->
<svg version="1.1" id="Capa_1" xmlns="http://www.w3.org/2000/svg" xmlns:xlink="http://www.w3.org/1999/xlink" x="0px" y="0px"
	 viewBox="0 0 512 512" style="enable-background:new 0 0 512 512;" xml:space="preserve">
<g>
	<g>
		<path d="M437.019,74.981c-31.071-31.07-68.727-53.152-109.814-64.981C304.351,3.419,280.44,0,256,0
			c-8.904,0-17.737,0.462-26.476,1.354c-58.375,5.959-112.488,31.57-154.545,73.626C26.628,123.332,0,187.619,0,256
			c0,63.355,22.874,123.188,64.69,170.096L4.394,486.391c-5.857,5.857-5.857,15.355,0,21.213c2.929,2.93,6.768,4.395,10.606,4.395
			c3.839,0,7.678-1.465,10.606-4.393l60.297-60.297c46.909,41.816,106.741,64.689,170.097,64.689
			c68.38,0,132.667-26.629,181.019-74.98C485.371,388.666,512,324.379,512,256S485.371,123.332,437.019,74.981z M256,481.998
			C131.384,481.998,30,380.615,30,256C30,131.383,131.384,30,256,30s226,101.383,226,226C482,380.615,380.616,481.998,256,481.998z"
			/>
	</g>
</g>
<g>
	<g>
		<path d="M256,128.535c-8.284,0-15,6.715-15,15v128.529c0,8.286,6.716,15,15,15s15-6.715,15-15V143.535
			C271,135.25,264.284,128.535,256,128.535z"/>
	</g>
</g>
<g>
	<g>
		<circle cx="256" cy="368.469" r="15"/>
	</g>
</g>
<g>
</g>
<g>
</g>
<g>
</g>
<g>
</g>
<g>
</g>
<g>
</g>
<g>
</g>
<g>
</g>
<g>
</g>
<g>
</g>
<g>
</g>
<g>
</g>
<g>
</g>
<g>
</g>
<g>
</g>
</svg>
