<?xml version="1.0" encoding="iso-8859-1"?>
<!-- Generator: Adobe Illustrator 19.0.0, SVG Export Plug-In . SVG Version: 6.00 Build 0)  -->
<svg version="1.1" id="Capa_1" xmlns="http://www.w3.org/2000/svg" xmlns:xlink="http://www.w3.org/1999/xlink" x="0px" y="0px"
	 viewBox="0 0 384 384" style="enable-background:new 0 0 384 384;" xml:space="preserve">
<circle style="fill:#EA8953;" cx="192" cy="192" r="192"/>
<path style="opacity:0.1;enable-background:new    ;" d="M370.03,263.9L210.12,103.99c-29.28-29.32-76.84-29.32-106.12,0
	c-29.32,29.32-29.32,76.84,0,106.16l159.886,159.886C312.084,350.554,350.545,312.095,370.03,263.9z"/>
<rect x="197.52" y="209.14" transform="matrix(-0.7071 0.7071 -0.7071 -0.7071 512.0264 232.6643)" style="fill:#FCD462;" width="20.612" height="26.476"/>
<rect x="212.097" y="194.592" transform="matrix(-0.7071 0.7071 -0.7071 -0.7071 526.6236 197.5237)" style="fill:#F6C358;" width="20.612" height="26.476"/>
<path style="fill:#3A556A;" d="M224.471,224.47l64.718,64.718l11.563-11.563c1.663-1.664,1.664-4.36,0-6.023l-61.707-61.707
	L224.471,224.47z"/>
<path style="fill:#64798A;" d="M209.895,239.046l61.707,61.707c1.663,1.663,4.36,1.663,6.022,0l11.564-11.564l-64.718-64.718
	L209.895,239.046z"/>
<ellipse style="fill:#EBF0F3;" cx="157.088" cy="157.08" rx="75.06" ry="75.06"/>
<ellipse style="fill:#27A2DB;" cx="157.088" cy="157.08" rx="59.288" ry="59.288"/>
<g>
	
		<ellipse transform="matrix(-0.2216 -0.9751 0.9751 -0.2216 -23.4971 347.4773)" style="fill:#2D93BA;" cx="126.938" cy="183.117" rx="10.516" ry="5.98"/>
	<path style="fill:#2D93BA;" d="M120.804,120.803c18.63-18.63,46.067-23.018,68.896-13.253
		c-23.015-15.206-54.298-12.677-74.562,7.586c-20.265,20.265-22.792,51.548-7.587,74.562
		C97.785,166.87,102.172,139.434,120.804,120.803z"/>
</g>
<g>
</g>
<g>
</g>
<g>
</g>
<g>
</g>
<g>
</g>
<g>
</g>
<g>
</g>
<g>
</g>
<g>
</g>
<g>
</g>
<g>
</g>
<g>
</g>
<g>
</g>
<g>
</g>
<g>
</g>
</svg>
