<?xml version='1.0' encoding='iso-8859-1'?>
<!DOCTYPE svg PUBLIC '-//W3C//DTD SVG 1.1//EN' 'http://www.w3.org/Graphics/SVG/1.1/DTD/svg11.dtd'>
<svg version="1.1" xmlns="http://www.w3.org/2000/svg" viewBox="0 0 297 297" xmlns:xlink="http://www.w3.org/1999/xlink" enable-background="new 0 0 297 297">
  <g>
    <path d="m187.852,32.188c-42.917-42.917-112.749-42.916-155.665,0-42.916,42.915-42.916,112.746-0.001,155.663 42.919,42.919 112.75,42.917 155.665-0.001 42.916-42.916 42.916-112.747 0.001-155.662zm-77.832,173.729c-24.569,0-49.139-9.351-67.843-28.057-37.409-37.408-37.409-98.276 0-135.685 37.407-37.407 98.274-37.409 135.685,0 37.408,37.409 37.408,98.277 0,135.685-18.705,18.705-43.274,28.057-67.842,28.057z"/>
    <path d="m294.853,262.639l-82.637-82.638c-0.041-0.041-0.087-0.072-0.128-0.111-4.245,6.195-9.109,12.09-14.607,17.589-5.499,5.499-11.394,10.363-17.59,14.608 0.04,0.041 0.071,0.088 0.112,0.128l82.637,82.638c1.376,1.375 3.241,2.147 5.185,2.147 1.945,0 3.809-0.772 5.185-2.147l21.843-21.843c2.863-2.864 2.863-7.507 0-10.371z"/>
    <path d="m140.668,136.262l-5.832-1.79-21.472,11.678c-2.086,1.135-4.604,1.135-6.688,0l-21.474-11.678-5.832,1.79c-7.095,2.398-11.855,9.029-11.855,16.523v28.099c12.459,7.499 27.049,11.818 42.65,11.818 15.481,0 29.963-4.258 42.358-11.651v-28.267c0-7.493-4.76-14.124-11.855-16.522z"/>
    <path d="m110.02,62.51c-9.788,0-17.752,7.964-17.752,17.752s7.964,17.752 17.752,17.752 17.752-7.964 17.752-17.752-7.964-17.752-17.752-17.752z"/>
    <path d="m110.165,27.036c-45.748,0-82.833,37.086-82.833,82.833 0,23.829 10.076,45.292 26.183,60.404v-17.488c0-13.555 8.641-25.543 21.5-29.829 0.054-0.018 0.106-0.035 0.16-0.052l8.733-2.68c1.8-0.551 3.746-0.356 5.397,0.543l20.714,11.265 20.712-11.265c1.654-0.899 3.6-1.094 5.398-0.543l8.733,2.68c0.054,0.017 0.106,0.034 0.16,0.052 12.859,4.286 21.5,16.274 21.5,29.829v17.767c16.279-15.126 26.475-36.708 26.475-60.682 0.001-45.748-37.084-82.834-82.832-82.834zm-.145,84.978c-17.508,0-31.752-14.244-31.752-31.752s14.244-31.752 31.752-31.752 31.752,14.244 31.752,31.752-14.245,31.752-31.752,31.752z"/>
  </g>
</svg>
