<?xml version="1.0" encoding="iso-8859-1"?>
<!-- Generator: Adobe Illustrator 19.0.0, SVG Export Plug-In . SVG Version: 6.00 Build 0)  -->
<svg version="1.1" id="Layer_1" xmlns="http://www.w3.org/2000/svg" xmlns:xlink="http://www.w3.org/1999/xlink" x="0px" y="0px"
	 viewBox="0 0 512 512" style="enable-background:new 0 0 512 512;" xml:space="preserve">
<path style="fill:#808285;" d="M256,172.23c-9.024,0-16.34-7.316-16.34-16.34v-38.128c0-9.024,7.316-16.34,16.34-16.34
	c9.024,0,16.34,7.316,16.34,16.34v38.128C272.34,164.914,265.024,172.23,256,172.23z"/>
<g>
	<path style="fill:#58595B;" d="M256,101.421v70.809c9.024,0,16.34-7.316,16.34-16.34v-38.128
		C272.34,108.737,265.024,101.421,256,101.421z"/>
	<path style="fill:#58595B;" d="M318.82,260.357H193.18c-16.832,0-13.236-19.184-45.08-34.782
		c-8.742-4.282-11.832-15.236-6.591-23.457c25.117-39.404,67.918-62.93,114.492-62.93s89.373,23.526,114.492,62.93
		c5.232,8.209,2.165,19.168-6.591,23.457C332.039,241.181,335.676,260.357,318.82,260.357z"/>
</g>
<path style="fill:#414042;" d="M370.492,202.117c-25.117-39.404-67.918-62.93-114.492-62.93v121.17h62.82
	c16.856,0,13.218-19.176,45.08-34.782C372.656,221.286,375.724,210.326,370.492,202.117z"/>
<path style="fill:#808285;" d="M319.134,368.204H192.866c-13.051,0-20.847-14.606-13.566-25.451
	c18.227-27.141,18.282-62.193,0.163-89.382c-2.55-3.827-3.589-8.541-2.533-13.016c1.801-7.623,8.495-12.679,15.934-12.679h125.85
	c4.732,0,9.366,1.836,12.527,5.357c5.149,5.739,5.556,13.99,1.456,20.093c-18.282,27.223-18.282,62.404,0,89.626
	C339.972,353.586,332.199,368.204,319.134,368.204z"/>
<path style="fill:#58595B;" d="M332.699,342.753c-18.226-27.14-18.282-62.191-0.166-89.38c2.549-3.826,3.589-8.54,2.534-13.015
	c-1.799-7.626-8.493-12.682-15.934-12.682H256v140.528h63.134C332.199,368.204,339.972,353.586,332.699,342.753z"/>
<path style="fill:#A7A9AC;" d="M112.921,410.578C50.656,410.578,0,359.922,0,297.657s50.656-112.921,112.921-112.921
	c43.757,0,86.055,26.075,103.751,67.32C246.159,320.783,201.097,410.578,112.921,410.578z"/>
<path style="fill:#808285;" d="M217.217,252.057c-17.718-41.299-60.103-67.388-103.922-67.32c-0.001,0.001-0.001,0.001-0.002,0.002
	v225.838c0.001,0.001,0.001,0.001,0.002,0.002C201.584,410.693,246.722,320.827,217.217,252.057z"/>
<path style="fill:#FFDB2D;" d="M112.749,368.315c-38.743,0-70.264-31.521-70.264-70.264s31.521-70.264,70.264-70.264
	s70.264,31.521,70.264,70.264S151.492,368.315,112.749,368.315z"/>
<path style="fill:#A7A9AC;" d="M399.079,410.578c-89.429,0-144.468-100.271-93.823-175.687
	c20.179-30.12,54.681-50.155,93.823-50.155c62.265,0,112.921,50.656,112.921,112.921S461.344,410.578,399.079,410.578z"/>
<path style="fill:#808285;" d="M502.629,252.057c-17.718-41.299-60.103-67.388-103.922-67.32c-0.001,0.001-0.001,0.001-0.002,0.002
	v225.838c0.001,0.001,0.001,0.001,0.002,0.002C486.997,410.693,532.135,320.827,502.629,252.057z"/>
<path style="fill:#FFDB2D;" d="M399.251,368.315c-38.743,0-70.264-31.521-70.264-70.264s31.521-70.264,70.264-70.264
	s70.264,31.521,70.264,70.264S437.994,368.315,399.251,368.315z"/>
<g>
	<path style="fill:#FF9900;" d="M113.294,227.787v140.528c38.743,0,70.264-31.521,70.264-70.264S152.037,227.787,113.294,227.787z"
		/>
	<path style="fill:#FF9900;" d="M398.706,227.787v140.528c38.743,0,70.264-31.521,70.264-70.264S437.45,227.787,398.706,227.787z"/>
</g>
<g>
</g>
<g>
</g>
<g>
</g>
<g>
</g>
<g>
</g>
<g>
</g>
<g>
</g>
<g>
</g>
<g>
</g>
<g>
</g>
<g>
</g>
<g>
</g>
<g>
</g>
<g>
</g>
<g>
</g>
</svg>
