<?xml version="1.0" encoding="iso-8859-1"?>
<!-- Generator: Adobe Illustrator 16.0.0, SVG Export Plug-In . SVG Version: 6.00 Build 0)  -->
<!DOCTYPE svg PUBLIC "-//W3C//DTD SVG 1.1//EN" "http://www.w3.org/Graphics/SVG/1.1/DTD/svg11.dtd">
<svg version="1.1" id="Capa_1" xmlns="http://www.w3.org/2000/svg" xmlns:xlink="http://www.w3.org/1999/xlink" x="0px" y="0px"
	 width="612.26px" height="612.261px" viewBox="0 0 612.26 612.261" style="enable-background:new 0 0 612.26 612.261;"
	 xml:space="preserve">
<g>
	<g>
		<g>
			<path d="M200.465,593.463c-1.861-3.525-2.985-6.158-4.68-10.271c-0.849-2.539-1.816-4.961-2.829-7.507
				c-9.265-23.303-17.669-46.924-26.503-70.385c-8-21.258-15.872-42.563-23.81-63.846c-6.962-18.678-13.985-37.338-20.865-56.053
				c-1.655-6.394-4.375-12.412-6.644-18.578c-6.952-18.931-13.992-37.828-21.063-56.709c-9.386-25.045-18.619-50.143-28.044-75.18
				c-1.882-5.003-3.808-9.997-5.498-15.078c-2.685-8.073,0.668-14.825,8.782-17.531c4.501-1.508,9.234-2.039,13.877-2.9
				c17.382-3.22,34.76-6.458,52.139-9.706c8.081-1.509,16.15-3.091,24.264-4.433c1.585-0.263,3.203-0.421,4.821-0.421
				c1.78,0,3.562,0.191,5.311,0.646c5.865,1.53,9.85,5.079,12.113,10.846c9.471,24.139,19.21,48.173,28.827,72.252
				c5.565,13.952,11.119,27.917,16.77,41.833c1.269,3.133,1.872,6.534,3.855,9.371c4.612,11.219,8.614,22.686,14.144,33.534
				c6.936,13.609,15.686,25.871,26.746,36.359c16.271,15.424,34.717,26.943,57.2,31.072c5.063,0.928,10.065,1.366,15.014,1.366
				c12.2,0,24.069-2.672,35.73-7.26c10.471-4.119,19.837-10.078,27.771-18.026c11.498-11.525,19.113-25.041,20.862-41.607
				c0.961-9.088-1.39-17.352-4.943-25.387c-12.924-29.268-25.909-58.513-38.844-87.784c-2.523-7.297-6.151-14.098-9.33-21.107
				c-8.44-18.64-16.646-37.388-24.893-56.12c-3.449-7.832,0.44-15.143,8.961-16.772c16.744-3.208,33.514-6.277,50.283-9.376
				c6.258-1.159,12.544-2.205,18.762-3.581c2.136-0.472,4.229-0.725,6.28-0.725c4.11,0,8.054,1.02,11.829,3.35
				c2.416,1.117,3.566,3.309,4.674,5.532c5.519,11.157,10.639,22.498,15.894,33.771c6.427,13.793,12.921,27.562,19.264,41.404
				c1.744,3.809,2.921,7.889,5.382,11.364c9.781,21.092,19.625,42.147,29.531,63.182c6.395,13.573,12.16,27.47,20.51,40.067
				c6.128,9.244,12.726,17.957,22.702,23.473c6.396,3.537,13.065,5.578,20.275,5.578c1.202,0,2.422-0.021,3.652-0.174
				c12.892-1.625,16.673-3.521,18.252-4.011c0.283-0.079,0.561-0.174,0.842-0.258c-0.006,0.039-0.014,0.086-0.021,0.127
				C627.475,242.062,579.36,120.07,475.411,51.084C425.046,17.667,366.612,0,306.421,0C203.423,0,107.973,51.167,51.092,136.871
				C-42.238,277.504-3.753,467.85,136.877,561.18c23.066,15.312,47.831,27.302,73.679,35.814
				C207.172,595.879,203.811,594.697,200.465,593.463z"/>
			<path d="M332.917,611.043c-0.22-0.512-0.438-1.023-0.659-1.494c-0.971-2.092-1.964-4.145-3.036-6.145
				c0.03-0.002,0.059-0.002,0.086-0.006c-2.035-4.158-4.772-9.736-6.245-12.92l-1.152-2.486
				c-12.8-27.596-24.776-55.506-35.592-82.955c-0.546-1.389-1.11-2.771-1.679-4.158c-1.318-3.227-2.682-6.566-3.923-10.211
				l-4.161-12.23l12.786,1.843c2.538,0.364,4.427,1.207,5.676,1.76c0.203,0.092,0.404,0.18,0.605,0.266
				c8.801,3.688,17.864,5.773,26.938,6.203c4.017,0.189,7.576,0.283,10.889,0.283c8.149,0,15.27-0.578,21.762-1.762
				c36.708-6.693,64.745-21.261,85.713-44.531c5.896-6.549,10.802-14.008,14.579-22.166c2.401-5.191,4.093-10.008,5.171-14.719
				c1.722-7.511,6.863-8.32,8.993-8.32c3.37,0,5.767,1.922,6.918,2.844c0.675,0.541,1.359,1.072,2.043,1.603l1.036,0.805
				c14.544,11.408,27.847,18.484,41.88,22.283c8.492,2.299,17.087,3.465,25.548,3.465c9.525,0,23.688-2.959,33.6-5.799
				c9.887-2.83,7.722-2.271,9.742-2.836c6.978-17.457,12.228-35.33,15.822-53.394c-2.371,0.631-4.431,0.925-9.22,2.17
				c-3.226,0.836-10.494,1.613-11.945,1.613c-8.228,0-16.113-2.147-24.106-6.565c-11.973-6.619-19.427-16.906-25.472-26.029
				c-7.051-10.639-12.308-22.068-17.389-33.122c-1.221-2.653-2.44-5.306-3.685-7.946c-9.857-20.927-19.705-41.995-29.273-62.623
				c-1.979-2.968-3.218-6.041-4.322-8.774c-0.461-1.144-0.895-2.221-1.354-3.225c-4.396-9.595-8.947-19.329-13.352-28.742
				c-1.965-4.204-3.931-8.409-5.892-12.615c-1.354-2.9-2.695-5.806-4.04-8.714c-3.795-8.208-7.718-16.692-11.774-24.892
				c-0.252-0.503-0.77-1.546-1.08-1.938l-0.252-0.117l-0.402-0.249c-2.4-1.481-4.836-2.17-7.671-2.17
				c-1.414,0-2.952,0.181-4.572,0.539c-4.75,1.052-9.544,1.916-14.183,2.752c-1.614,0.292-3.23,0.583-4.845,0.882l-8.902,1.644
				c-13.558,2.501-27.575,5.089-41.334,7.724c-1.732,0.331-2.969,1.05-3.479,2.026c-0.656,1.251-0.107,2.903,0.277,3.777l3.771,8.57
				c6.858,15.593,13.95,31.715,21.087,47.475c0.895,1.972,1.858,3.995,2.789,5.952c2.354,4.941,4.785,10.046,6.7,15.515
				c6.044,13.678,12.099,27.348,18.153,41.019c6.858,15.49,13.719,30.979,20.562,46.473c3.007,6.803,6.86,17.258,5.574,29.42
				c-1.84,17.441-9.406,32.609-23.13,46.363c-8.525,8.541-18.779,15.203-30.48,19.807c-13.35,5.254-25.984,7.81-38.629,7.81
				c-5.491,0-11.021-0.504-16.441-1.498c-21.942-4.029-41.966-14.861-61.221-33.113c-11.207-10.627-20.746-23.586-28.352-38.51
				c-4.123-8.09-7.417-16.471-10.602-24.574c-1.144-2.91-2.324-5.912-3.521-8.842c-1.652-2.625-2.531-5.316-3.251-7.521
				c-0.307-0.942-0.599-1.832-0.908-2.598c-4.916-12.106-9.835-24.446-14.595-36.378l-2.19-5.493
				c-2.981-7.461-5.973-14.923-8.966-22.384c-6.556-16.337-13.333-33.23-19.877-49.911c-1.342-3.415-3.294-5.178-6.741-6.076
				c-0.992-0.258-2.108-0.39-3.312-0.39c-1.082,0-2.27,0.106-3.53,0.315c-6.16,1.018-12.439,2.205-18.515,3.351
				c-1.863,0.354-3.724,0.703-5.586,1.052c-17.382,3.247-34.765,6.487-52.15,9.707c-1.224,0.228-2.458,0.433-3.692,0.639
				c-3.266,0.544-6.35,1.058-9.111,1.984c-3.971,1.324-5.099,3.573-3.786,7.523c1.376,4.139,2.97,8.358,4.511,12.439l0.887,2.35
				c5.25,13.951,10.529,28.151,15.634,41.883c4.127,11.104,8.255,22.208,12.412,33.305c8.336,22.25,15.034,40.285,21.083,56.756
				c0.638,1.736,1.313,3.453,2.027,5.273c1.706,4.348,3.467,8.84,4.747,13.66c4.851,13.192,9.857,26.582,14.698,39.535
				c2.011,5.375,4.018,10.75,6.023,16.125c2.697,7.231,5.388,14.469,8.081,21.707c5.135,13.813,10.447,28.096,15.723,42.116
				c2.955,7.851,5.909,15.841,8.765,23.568c5.678,15.361,11.549,31.246,17.687,46.682l0.093,0.232
				c0.885,2.225,7.907,19.192,10.2,24.018c30.568,10.062,62.651,15.254,95.252,15.254c9.968,0,19.861-0.491,29.661-1.434
				C334.845,610.881,334.038,610.943,332.917,611.043z"/>
			<path d="M586.608,428.725c-13.953,4.761-27.219,7.929-39.514,7.488c-9.158-0.33-18.371-1.238-27.619-3.742
				c-16.673-4.514-31.209-13.115-44.684-23.684c-1.052-0.822-2.116-1.633-3.158-2.469c-0.896-0.722-1.51-1.105-1.966-1.105
				c-0.606,0-0.933,0.682-1.273,2.168c-1.292,5.648-3.28,11.041-5.705,16.279c-4.089,8.834-9.372,16.91-15.881,24.139
				c-24.212,26.871-55.234,40.65-90.176,47.021c-7.702,1.403-15.44,1.889-23.185,1.889c-3.753,0-7.51-0.113-11.262-0.291
				c-10.203-0.482-20.145-2.838-29.628-6.813c-1.289-0.541-2.542-1.229-4.346-1.487c1.688,4.965,3.677,9.457,5.472,14.016
				c10.979,27.865,22.808,55.367,35.407,82.527c2.77,5.969,5.507,11.965,8.464,17.85c0.021,0.041,0.043,0.086,0.064,0.127
				c1.98,3.889,2.029,5.176,3.374,7.599c89.271-10.209,169.844-58.979,220.188-134.839c11.001-16.575,20.146-33.852,27.533-51.567
				C588.007,425.502,587.281,427.184,586.608,428.725z"/>
			<path d="M589.752,421.355c0.148-0.365,0.301-0.73,0.448-1.097C590.053,420.621,589.905,420.984,589.752,421.355z"/>
		</g>
	</g>
</g>
<g>
</g>
<g>
</g>
<g>
</g>
<g>
</g>
<g>
</g>
<g>
</g>
<g>
</g>
<g>
</g>
<g>
</g>
<g>
</g>
<g>
</g>
<g>
</g>
<g>
</g>
<g>
</g>
<g>
</g>
</svg>
