<?xml version="1.0" encoding="iso-8859-1"?>
<!-- Generator: Adobe Illustrator 16.0.0, SVG Export Plug-In . SVG Version: 6.00 Build 0)  -->
<!DOCTYPE svg PUBLIC "-//W3C//DTD SVG 1.1//EN" "http://www.w3.org/Graphics/SVG/1.1/DTD/svg11.dtd">
<svg version="1.1" id="Capa_1" xmlns="http://www.w3.org/2000/svg" xmlns:xlink="http://www.w3.org/1999/xlink" x="0px" y="0px"
	 width="612.246px" height="612.246px" viewBox="0 0 612.246 612.246" style="enable-background:new 0 0 612.246 612.246;"
	 xml:space="preserve">
<g>
	<g>
		<g>
			<path d="M475.388,51.087C425.027,17.667,366.594,0,306.406,0C203.412,0,107.964,51.165,51.084,136.866
				c-93.327,140.629-54.844,330.968,85.782,424.296c50.359,33.422,108.789,51.084,168.977,51.084
				c102.995,0,198.441-51.164,255.316-136.865C654.486,334.746,616.009,144.411,475.388,51.087z M57.684,141.245
				C113.094,57.76,206.074,7.918,306.407,7.918c58.626,0,115.544,17.209,164.603,49.767
				c102.428,67.974,149.211,188.785,128.299,302.686c-3.503,0.697-7.014,1.238-10.589,1.57c-1.232,0.114-2.449,0.174-3.65,0.174
				c-7.21,0-13.879-2.045-20.276-5.58c-9.976-5.516-16.573-14.228-22.701-23.473c-8.35-12.597-14.113-26.494-20.509-40.065
				c-9.907-21.033-19.751-42.087-29.53-63.18c-2.463-3.473-3.638-7.555-5.382-11.364c-6.342-13.84-12.837-27.61-19.262-41.403
				c-5.255-11.273-10.375-22.615-15.894-33.771c-1.106-2.224-2.259-4.416-4.675-5.532c-3.774-2.331-7.717-3.35-11.829-3.35
				c-2.051,0-4.145,0.253-6.278,0.726c-6.218,1.376-12.504,2.42-18.763,3.581c-16.769,3.1-33.536,6.169-50.28,9.376
				c-8.52,1.63-12.41,8.939-8.961,16.772c8.247,18.73,16.45,37.479,24.893,56.118c3.177,7.01,6.805,13.811,9.33,21.107
				c12.933,29.268,25.918,58.514,38.842,87.78c3.554,8.037,5.905,16.299,4.942,25.387c-1.747,16.566-9.363,30.08-20.861,41.604
				c-7.935,7.949-17.301,13.908-27.771,18.027c-11.659,4.588-23.528,7.26-35.729,7.26c-4.948,0-9.949-0.438-15.013-1.366
				c-22.481-4.132-40.929-15.648-57.199-31.072c-11.058-10.486-19.81-22.748-26.745-36.357
				c-5.527-10.848-9.531-22.315-14.143-33.535c-1.983-2.834-2.586-6.235-3.854-9.371c-5.651-13.914-11.204-27.879-16.769-41.83
				c-9.617-24.078-19.355-48.112-28.826-72.25c-2.265-5.767-6.248-9.316-12.113-10.846c-1.749-0.455-3.53-0.646-5.311-0.646
				c-1.617,0-3.235,0.158-4.821,0.421c-8.114,1.342-16.185,2.924-24.263,4.433c-17.379,3.247-34.756,6.485-52.138,9.706
				c-4.644,0.861-9.376,1.392-13.877,2.9c-8.114,2.707-11.467,9.459-8.782,17.531c1.688,5.079,3.616,10.073,5.498,15.077
				c9.425,25.036,18.658,50.131,28.043,75.178c7.072,18.879,14.111,37.778,21.063,56.705c2.271,6.17,4.989,12.186,6.644,18.579
				c6.88,18.714,13.901,37.373,20.865,56.05c7.938,21.28,15.809,42.588,23.809,63.844c8.834,23.459,17.239,47.082,26.503,70.385
				c1.012,2.543,1.979,4.967,2.829,7.506c-18.971-7.58-37.239-17.137-54.526-28.608C4.26,463.65-33.228,278.236,57.684,141.245z
				 M280.704,490.652c1.24,3.645,2.605,6.981,3.923,10.209c0.567,1.389,1.132,2.77,1.677,4.157
				c10.815,27.447,22.79,55.357,35.591,82.953l1.152,2.484c1.474,3.186,4.209,8.762,6.244,12.92
				c-7.762,0.604-15.577,0.947-23.445,0.947c-34.417,0-68.245-5.939-100.24-17.422c-1.482-4.609-4.325-11.705-5.209-13.929
				l-0.094-0.231c-6.137-15.437-12.008-31.318-17.686-46.683c-2.856-7.727-5.81-15.717-8.765-23.565
				c-5.276-14.021-10.587-28.303-15.722-42.117c-2.691-7.236-5.382-14.473-8.081-21.705c-2.005-5.377-4.012-10.752-6.023-16.125
				c-4.842-12.953-9.846-26.34-14.697-39.533c-1.28-4.819-3.041-9.312-4.747-13.659c-0.714-1.82-1.389-3.537-2.027-5.273
				c-6.047-16.471-12.746-34.504-21.08-56.754c-4.157-11.097-8.283-22.201-12.412-33.304c-5.104-13.731-10.383-27.932-15.634-41.881
				l-0.887-2.35c-1.541-4.082-3.134-8.302-4.511-12.44c-1.313-3.95-0.185-6.199,3.785-7.523c2.762-0.927,5.846-1.44,9.112-1.985
				c1.233-0.206,2.467-0.412,3.691-0.638c17.385-3.22,34.767-6.46,52.149-9.707c1.864-0.348,3.725-0.698,5.586-1.051
				c6.075-1.148,12.356-2.334,18.514-3.352c1.261-0.209,2.449-0.315,3.53-0.315c1.204,0,2.32,0.131,3.312,0.39
				c3.446,0.898,5.399,2.661,6.741,6.075c6.544,16.679,13.321,33.571,19.876,49.909c2.993,7.461,5.985,14.921,8.965,22.384
				l2.19,5.492c4.759,11.932,9.679,24.271,14.595,36.377c0.309,0.764,0.6,1.653,0.907,2.598c0.721,2.203,1.6,4.896,3.251,7.521
				c1.197,2.928,2.377,5.93,3.521,8.842c3.187,8.102,6.48,16.481,10.602,24.574c7.607,14.924,17.145,27.879,28.351,38.506
				c19.254,18.252,39.279,29.086,61.218,33.115c5.42,0.991,10.95,1.495,16.441,1.495c12.642,0,25.278-2.555,38.628-7.809
				c11.701-4.602,21.954-11.266,30.479-19.805c13.725-13.756,21.289-28.922,23.132-46.363c1.285-12.162-2.565-22.615-5.574-29.418
				c-6.842-15.494-13.701-30.982-20.562-46.471c-6.055-13.671-12.107-27.341-18.152-41.018c-1.916-5.469-4.349-10.573-6.699-15.515
				c-0.932-1.958-1.896-3.98-2.789-5.952c-7.138-15.758-14.229-31.881-21.086-47.473l-3.771-8.57
				c-0.385-0.875-0.933-2.526-0.276-3.777c0.512-0.976,1.749-1.695,3.479-2.026c13.759-2.635,27.776-5.223,41.334-7.724l8.902-1.644
				c1.612-0.298,3.229-0.591,4.845-0.882c4.637-0.836,9.432-1.701,14.182-2.752c1.617-0.358,3.157-0.539,4.571-0.539
				c2.835,0,5.271,0.69,7.67,2.17l0.404,0.249l0.252,0.117c0.31,0.391,0.826,1.433,1.08,1.938
				c4.056,8.199,7.978,16.684,11.773,24.891c1.345,2.908,2.688,5.814,4.04,8.714c1.959,4.207,3.927,8.411,5.892,12.615
				c4.401,9.412,8.953,19.146,13.35,28.742c0.46,1.004,0.895,2.081,1.354,3.225c1.103,2.733,2.341,5.806,4.32,8.774
				c9.566,20.627,19.417,41.694,29.271,62.621c1.244,2.64,2.465,5.293,3.686,7.946c5.081,11.056,10.337,22.483,17.39,33.123
				c6.045,9.121,13.498,19.407,25.47,26.026c7.993,4.418,15.878,6.566,24.106,6.566c1.45,0,2.931-0.07,4.388-0.207
				c1.146-0.107,5.461-1.205,8.363-1.889c-3.896,18.485-9.602,36.75-17.148,54.541c-10.157,3.09-24.073,5.797-33.599,5.797
				c-8.46,0-17.055-1.166-25.548-3.467c-14.032-3.798-27.336-10.873-41.878-22.281l-1.035-0.806
				c-0.686-0.53-1.369-1.061-2.043-1.602c-1.153-0.924-3.548-2.842-6.918-2.844c-2.132,0-7.271,0.811-8.993,8.317
				c-1.078,4.713-2.771,9.529-5.171,14.722c-3.777,8.157-8.684,15.614-14.578,22.164c-20.968,23.27-49.004,37.838-85.711,44.528
				c-6.493,1.187-13.612,1.763-21.761,1.763c-3.312,0-6.872-0.093-10.888-0.283c-9.073-0.431-18.137-2.517-26.938-6.203
				c-0.201-0.086-0.402-0.174-0.605-0.264c-1.25-0.558-3.139-1.396-5.676-1.763l-12.786-1.842L280.704,490.652z M554.563,471.004
				c-49.505,74.592-129.013,122.291-216.957,131.613c-0.022-0.041-0.043-0.086-0.065-0.127c-2.957-5.883-5.695-11.879-8.464-17.849
				c-12.599-27.159-24.428-54.661-35.405-82.524c-1.794-4.562-3.784-9.053-5.472-14.019c1.804,0.261,3.057,0.949,4.346,1.488
				c9.483,3.975,19.423,6.33,29.627,6.813c3.752,0.178,7.507,0.291,11.262,0.291c7.742,0,15.479-0.484,23.184-1.89
				c34.938-6.371,65.96-20.149,90.173-47.021c6.508-7.229,11.791-15.306,15.881-24.138c2.421-5.239,4.41-10.631,5.704-16.28
				c0.341-1.484,0.667-2.166,1.273-2.166c0.456,0,1.068,0.387,1.966,1.104c1.042,0.836,2.105,1.648,3.158,2.472
				c13.475,10.567,28.011,19.17,44.683,23.684c9.248,2.504,18.452,3.74,27.618,3.74c9.853,0,19.651-1.445,29.401-4.267
				C570.247,445.293,562.956,458.355,554.563,471.004z"/>
		</g>
	</g>
</g>
<g>
</g>
<g>
</g>
<g>
</g>
<g>
</g>
<g>
</g>
<g>
</g>
<g>
</g>
<g>
</g>
<g>
</g>
<g>
</g>
<g>
</g>
<g>
</g>
<g>
</g>
<g>
</g>
<g>
</g>
</svg>
