<?xml version="1.0" encoding="iso-8859-1"?>
<!-- Generator: Adobe Illustrator 18.1.1, SVG Export Plug-In . SVG Version: 6.00 Build 0)  -->
<svg version="1.1" id="Capa_1" xmlns="http://www.w3.org/2000/svg" xmlns:xlink="http://www.w3.org/1999/xlink" x="0px" y="0px"
	 viewBox="0 0 19.264 19.264" style="enable-background:new 0 0 19.264 19.264;" xml:space="preserve">
<g>
	<g>
		<path style="fill:#030104;" d="M19.264,9.638c0-5.319-4.313-9.631-9.632-9.631C4.312,0.007,0,4.32,0,9.638
			c0,4.1,2.567,7.593,6.177,8.982l-1.818-8.45L3.845,7.782l-0.91-4.224L6.46,2.799l1.303,6.059c0.352,1.636,1.094,2.514,2.316,2.25
			c0.967-0.208,1.377-0.995,1.487-1.597c0.049-0.228,0.013-0.51-0.047-0.786L10.076,2.02L13.6,1.263l1.646,7.651
			c0.662,3.077,2.454,3.548,2.454,3.548s-2.419,0.521-3.433,0.738c-1.012,0.219-1.694-1.591-1.694-1.591l-0.07,0.015
			c-0.288,0.785-0.613,2.06-3.127,2.602c-0.184,0.039-0.364,0.064-0.542,0.083l1.064,4.948
			C15.092,19.116,19.264,14.867,19.264,9.638z"/>
	</g>
</g>
<g>
</g>
<g>
</g>
<g>
</g>
<g>
</g>
<g>
</g>
<g>
</g>
<g>
</g>
<g>
</g>
<g>
</g>
<g>
</g>
<g>
</g>
<g>
</g>
<g>
</g>
<g>
</g>
<g>
</g>
</svg>
