<?xml version="1.0" encoding="UTF-8" standalone="no"?>
<!-- Created with Inkscape (http://www.inkscape.org/) -->

<svg
   xmlns:dc="http://purl.org/dc/elements/1.1/"
   xmlns:cc="http://creativecommons.org/ns#"
   xmlns:rdf="http://www.w3.org/1999/02/22-rdf-syntax-ns#"
   xmlns:svg="http://www.w3.org/2000/svg"
   xmlns="http://www.w3.org/2000/svg"
   xmlns:sodipodi="http://sodipodi.sourceforge.net/DTD/sodipodi-0.dtd"
   xmlns:inkscape="http://www.inkscape.org/namespaces/inkscape"
   width="210mm"
   height="297mm"
   viewBox="0 0 210 297"
   version="1.1"
   id="svg8"
   inkscape:version="0.92.2 (unknown)"
   sodipodi:docname="storrent-icon.svg">
  <defs
     id="defs2" />
  <sodipodi:namedview
     id="base"
     pagecolor="#ffffff"
     bordercolor="#666666"
     borderopacity="1.0"
     inkscape:pageopacity="0.0"
     inkscape:pageshadow="2"
     inkscape:zoom="0.49497475"
     inkscape:cx="1286.1507"
     inkscape:cy="801.00359"
     inkscape:document-units="mm"
     inkscape:current-layer="layer1"
     showgrid="false"
     inkscape:window-width="1855"
     inkscape:window-height="1056"
     inkscape:window-x="65"
     inkscape:window-y="24"
     inkscape:window-maximized="1"
     inkscape:snap-nodes="false"
     showguides="false"
     inkscape:guide-bbox="true" />
  <metadata
     id="metadata5">
    <rdf:RDF>
      <cc:Work
         rdf:about="">
        <dc:format>image/svg+xml</dc:format>
        <dc:type
           rdf:resource="http://purl.org/dc/dcmitype/StillImage" />
        <dc:title />
      </cc:Work>
    </rdf:RDF>
  </metadata>
  <g
     inkscape:label="Layer 1"
     inkscape:groupmode="layer"
     id="layer1">
    <circle
       style="opacity:1;fill:#3366cc;fill-opacity:1;stroke:none;stroke-width:6.61876011;stroke-miterlimit:4;stroke-dasharray:none;stroke-opacity:1"
       id="path5530"
       cx="506.24615"
       cy="137.83658"
       r="41.350212"
       inkscape:export-filename="/home/srdjan/Projects/STorrent/images/icon.png"
       inkscape:export-xdpi="118.71169"
       inkscape:export-ydpi="118.71169" />
    <rect
       y="108.21226"
       x="90.60437"
       height="76"
       width="76"
       id="rect1257"
       style="opacity:1;fill:#388e3c;fill-opacity:1;stroke:none;stroke-width:1.93450308;stroke-miterlimit:4;stroke-dasharray:none;stroke-opacity:1"
       inkscape:export-filename="/home/srdjan/Projects/storrent/app/images/icon.png"
       inkscape:export-xdpi="96"
       inkscape:export-ydpi="96" />
    <g
       id="g1305"
       transform="matrix(0.11132264,0,0,0.11132264,98.085876,115.69366)"
       style="fill:#ffffff;fill-opacity:1"
       inkscape:export-filename="/home/srdjan/Projects/storrent/app/images/icon.png"
       inkscape:export-xdpi="96"
       inkscape:export-ydpi="96">
      <g
         id="g1273"
         style="fill:#ffffff;fill-opacity:1">
        <g
           id="g1271"
           style="fill:#ffffff;fill-opacity:1">
          <path
             id="path1263"
             d="m 207.50031,271.36223 c -4.62294,0 -7.57847,0.40967 -8.99692,0.84374 v 30.07415 h 8.6611 c 9.83379,0 16.01287,-6.22349 16.01287,-15.6659 0,-10.46339 -6.17802,-15.25199 -15.67705,-15.25199 z"
             inkscape:connector-curvature="0"
             style="fill:#ffffff;fill-opacity:1;stroke-width:1.06031752"
             inkscape:export-filename="/home/srdjan/Projects/storrent/app/images/icon.png"
             inkscape:export-xdpi="96"
             inkscape:export-ydpi="96" />
          <path
             id="path1265"
             d="m 111.73983,306.94348 c 0,19.37091 8.18334,34.75237 22.1856,34.75237 14.11666,0 22.06589,-15.53323 22.06589,-35.45495 0,-17.94451 -7.48207,-34.8723 -22.06589,-34.8723 -14.46943,-0.006 -22.1856,15.94714 -22.1856,35.57488 z"
             inkscape:connector-curvature="0"
             style="fill:#ffffff;fill-opacity:1;stroke-width:1.06031752"
             inkscape:export-filename="/home/srdjan/Projects/storrent/app/images/icon.png"
             inkscape:export-xdpi="96"
             inkscape:export-ydpi="96" />
          <path
             id="path1267"
             d="m 275.02957,271.36223 c -4.62929,0 -7.57317,0.40967 -8.99691,0.84374 v 30.07415 h 8.64415 c 9.85497,0 16.02665,-6.22349 16.02665,-15.6659 -8.9e-4,-10.46339 -6.17274,-15.25199 -15.67389,-15.25199 z"
             inkscape:connector-curvature="0"
             style="fill:#ffffff;fill-opacity:1;stroke-width:1.06031752"
             inkscape:export-filename="/home/srdjan/Projects/storrent/app/images/icon.png"
             inkscape:export-xdpi="96"
             inkscape:export-ydpi="96" />
          <path
             id="path1269"
             d="m 498.79026,191.33785 h -13.95247 v -67.41928 c 0,-0.42028 -0.0614,-0.84374 -0.11547,-1.27357 -0.0275,-2.67448 -0.87818,-5.30333 -2.70765,-7.38667 L 370.03475,-12.903574 c -0.0403,-0.0329 -0.0667,-0.04458 -0.09,-0.0796 -0.66632,-0.747157 -1.44387,-1.369081 -2.27015,-1.9061 -0.24789,-0.163441 -0.48729,-0.300349 -0.74259,-0.444686 -0.71293,-0.387376 -1.4693,-0.713196 -2.2585,-0.947744 -0.20021,-0.05519 -0.38878,-0.142215 -0.59959,-0.197402 -0.84746,-0.201648 -1.72459,-0.326882 -2.61972,-0.326882 H 86.235329 c -12.562619,0 -22.776703,10.2405145 -22.776703,22.8201409 V 191.33148 H 49.505098 c -17.974754,0 -32.552229,14.59929 -32.552229,32.61703 v 169.60898 c 0,18.00077 14.577475,32.61491 32.552229,32.61491 H 63.45227 v 116.10551 c 0,12.58068 10.215142,22.81908 22.776706,22.81908 H 462.05473 c 12.55626,0 22.77671,-10.2384 22.77671,-22.81908 V 426.17346 h 13.94716 c 17.97265,0 32.55753,-14.60777 32.55753,-32.6149 V 223.95488 c 0.007,-18.02305 -14.57323,-32.61703 -32.54587,-32.61703 z M 86.235329,6.0141549 H 350.06634 V 122.76387 c 0,6.30414 5.10915,11.41007 11.38887,11.41007 h 100.60693 v 57.16285 H 86.235329 Z M 393.58476,320.07392 v 34.06359 h -13.40585 v -95.218 h 16.6167 l 20.63049,40.83152 c 5.34433,10.5865 9.95349,21.60495 13.62831,31.91763 h 0.23942 c -0.93857,-12.71866 -1.29027,-24.99263 -1.29027,-39.53885 v -33.2103 h 13.5245 v 95.218 h -15.06477 l -20.88051,-41.81853 c -5.10491,-10.46126 -10.42064,-22.17274 -14.34123,-32.91419 l -0.37395,0.13266 c 0.60065,12.30263 0.71716,24.85997 0.71716,40.53647 z m -29.78948,-22.30646 v 14.12488 H 333.6668 v 27.9717 h 33.67513 v 14.27347 h -48.28438 v -95.218 h 46.51 v 14.27347 h -31.9124 v 24.58509 h 30.14013 z m -61.9487,29.79502 c 2.48095,11.87598 4.62716,22.90398 6.28396,26.57503 h -15.05948 c -1.18857,-2.83049 -3.07841,-10.60242 -5.34857,-22.46885 -2.24684,-12.42998 -6.0382,-16.38015 -14.34971,-16.66883 h -7.34012 v 39.13768 h -14.48107 v -93.9508 c 5.46085,-1.11437 13.63784,-1.96447 22.06589,-1.96447 11.50329,0 19.32117,2.25951 24.67186,7.62228 4.38034,4.38106 6.87189,11.01951 6.87189,19.06419 0,12.28989 -7.00007,20.6243 -14.45777,23.87826 v 0.42239 c 5.68225,2.54183 9.12403,9.18346 11.14312,18.35312 z m -67.51974,0 c 2.48308,11.87598 4.61763,22.90398 6.28608,26.57503 h -15.06689 c -1.17903,-2.83049 -3.08054,-10.60242 -5.34115,-22.46885 -2.24896,-12.42998 -6.04667,-16.38015 -14.34972,-16.66883 h -7.35177 v 39.13768 h -14.46942 v -93.9508 c 5.45027,-1.11437 13.64315,-1.96447 22.06059,-1.96447 11.50754,0 19.33706,2.25951 24.66763,7.62228 4.38457,4.38106 6.87931,11.01951 6.87931,19.06419 0,12.28989 -7.00432,20.6243 -14.46308,23.87826 v 0.42239 c 5.68756,2.54183 9.11556,9.18346 11.14842,18.35312 z m -62.91587,-22.02947 c 0,31.91233 -16.25653,50.14233 -38.31606,50.14233 -22.53307,0 -36.757779,-20.48103 -36.757779,-48.43682 0,-29.26118 15.402699,-49.88124 37.947409,-49.88124 23.36993,0 37.12643,21.05094 37.12643,48.17573 z M 71.377136,273.45512 v 80.68239 H 56.801779 V 273.45512 H 34.024013 v -14.54091 h 60.363945 v 14.54091 z M 462.06107,536.099 H 86.235329 V 426.17346 H 462.06107 Z m 51.24946,-262.64388 h -23.00659 v 80.68239 H 475.7127 v -80.68239 h -22.77565 v -14.54091 h 60.37348 z"
             inkscape:connector-curvature="0"
             style="fill:#ffffff;fill-opacity:1;stroke-width:1.06031752"
             inkscape:export-filename="/home/srdjan/Projects/storrent/app/images/icon.png"
             inkscape:export-xdpi="96"
             inkscape:export-ydpi="96" />
        </g>
      </g>
      <g
         id="g1275"
         style="fill:#ffffff;fill-opacity:1" />
      <g
         id="g1277"
         style="fill:#ffffff;fill-opacity:1" />
      <g
         id="g1279"
         style="fill:#ffffff;fill-opacity:1" />
      <g
         id="g1281"
         style="fill:#ffffff;fill-opacity:1" />
      <g
         id="g1283"
         style="fill:#ffffff;fill-opacity:1" />
      <g
         id="g1285"
         style="fill:#ffffff;fill-opacity:1" />
      <g
         id="g1287"
         style="fill:#ffffff;fill-opacity:1" />
      <g
         id="g1289"
         style="fill:#ffffff;fill-opacity:1" />
      <g
         id="g1291"
         style="fill:#ffffff;fill-opacity:1" />
      <g
         id="g1293"
         style="fill:#ffffff;fill-opacity:1" />
      <g
         id="g1295"
         style="fill:#ffffff;fill-opacity:1" />
      <g
         id="g1297"
         style="fill:#ffffff;fill-opacity:1" />
      <g
         id="g1299"
         style="fill:#ffffff;fill-opacity:1" />
      <g
         id="g1301"
         style="fill:#ffffff;fill-opacity:1" />
      <g
         id="g1303"
         style="fill:#ffffff;fill-opacity:1" />
    </g>
    <g
       id="g821"
       transform="matrix(0.26458333,0,0,0.26458333,123.50124,14.911092)"
       inkscape:export-xdpi="96"
       inkscape:export-ydpi="96">
      <g
         id="g819">
        <g
           id="g817">
          <circle
             id="circle815"
             r="148.5"
             cy="148.5"
             cx="148.5"
             style="fill:#345065" />
        </g>
      </g>
    </g>
    <path
       id="path823"
       d="m 166.83231,36.349485 -23.32249,23.845838 31.38249,31.395193 c 11.1215,-3.596746 20.07262,-12.015523 24.38771,-22.793325 z"
       style="fill:#32393b;stroke-width:0.26458332"
       inkscape:connector-curvature="0"
       inkscape:export-xdpi="96"
       inkscape:export-ydpi="96" />
    <g
       id="g827"
       transform="matrix(0.26458333,0,0,0.26458333,15.524349,103.3773)">
      <path
         id="path825"
         d="m 231.005,237.422 v 0 c 6.202,-6.202 6.202,-16.258 0,-22.46 l -67.381,-67.381 c -6.202,-6.202 -16.258,-6.202 -22.46,0 v 0 c -6.202,6.202 -6.202,16.258 0,22.46 l 67.381,67.381 c 6.202,6.203 16.258,6.203 22.46,0 z"
         style="fill:#3498db"
         inkscape:connector-curvature="0" />
    </g>
    <g
       id="g831"
       transform="matrix(0.26458333,0,0,0.26458333,15.524349,103.3773)">
      <circle
         id="circle829"
         r="63.046001"
         cy="125.12"
         cx="118.703"
         style="fill:#b8c9f1" />
    </g>
    <g
       id="g835"
       transform="matrix(0.26458333,0,0,0.26458333,15.524349,103.3773)">
      <path
         id="path833"
         d="M 163.284,80.54 C 149.989,67.245 132.233,61.143 114.834,62.207 v 125.827 c 17.399,1.064 35.155,-5.038 48.45,-18.333 24.621,-24.621 24.621,-64.54 0,-89.161 z"
         style="fill:#8297bf"
         inkscape:connector-curvature="0" />
    </g>
    <g
       id="g839"
       transform="matrix(0.26458333,0,0,0.26458333,15.524349,103.3773)">
      <circle
         id="circle837"
         r="42.030998"
         cy="125.12"
         cx="118.703"
         style="fill:#ffffff" />
    </g>
    <g
       id="g843"
       transform="matrix(0.26458333,0,0,0.26458333,15.524349,103.3773)">
      <path
         id="path841"
         d="m 148.424,95.4 c -9.192,-9.192 -21.583,-13.233 -33.59,-12.13 v 83.7 c 12.007,1.104 24.398,-2.937 33.59,-12.13 16.414,-16.413 16.414,-43.026 0,-59.44 z"
         style="fill:#e3e5e4"
         inkscape:connector-curvature="0" />
    </g>
    <g
       id="g847"
       transform="matrix(0.26458333,0,0,0.26458333,74.858185,17.316518)" />
    <g
       id="g849"
       transform="matrix(0.26458333,0,0,0.26458333,74.858185,17.316518)" />
    <g
       id="g851"
       transform="matrix(0.26458333,0,0,0.26458333,74.858185,17.316518)" />
    <g
       id="g853"
       transform="matrix(0.26458333,0,0,0.26458333,74.858185,17.316518)" />
    <g
       id="g855"
       transform="matrix(0.26458333,0,0,0.26458333,74.858185,17.316518)" />
    <g
       id="g857"
       transform="matrix(0.26458333,0,0,0.26458333,74.858185,17.316518)" />
    <g
       id="g859"
       transform="matrix(0.26458333,0,0,0.26458333,74.858185,17.316518)" />
    <g
       id="g861"
       transform="matrix(0.26458333,0,0,0.26458333,74.858185,17.316518)" />
    <g
       id="g863"
       transform="matrix(0.26458333,0,0,0.26458333,74.858185,17.316518)" />
    <g
       id="g865"
       transform="matrix(0.26458333,0,0,0.26458333,74.858185,17.316518)" />
    <g
       id="g867"
       transform="matrix(0.26458333,0,0,0.26458333,74.858185,17.316518)" />
    <g
       id="g869"
       transform="matrix(0.26458333,0,0,0.26458333,74.858185,17.316518)" />
    <g
       id="g871"
       transform="matrix(0.26458333,0,0,0.26458333,74.858185,17.316518)" />
    <g
       id="g873"
       transform="matrix(0.26458333,0,0,0.26458333,74.858185,17.316518)" />
    <g
       id="g875"
       transform="matrix(0.26458333,0,0,0.26458333,74.858185,17.316518)" />
    <path
       inkscape:export-ydpi="96"
       inkscape:export-xdpi="96"
       inkscape:connector-curvature="0"
       style="fill:#d8dbe2;stroke-width:0.09741377"
       d="m 174.3974,124.96146 c -0.45414,0 -0.82217,-0.36813 -0.82217,-0.82217 0,-5.43988 4.4257,-9.86558 9.86558,-9.86558 0.45414,0 0.82217,0.36813 0.82217,0.82217 0,0.45405 -0.36803,0.82217 -0.82217,0.82217 -4.53325,0 -8.22134,3.68809 -8.22134,8.22134 1e-4,0.45394 -0.36793,0.82207 -0.82207,0.82207 z"
       id="path923" />
    <rect
       inkscape:export-ydpi="96"
       inkscape:export-xdpi="96"
       x="-76.394493"
       y="-165.97348"
       transform="rotate(135)"
       style="fill:#a7afba;stroke-width:0.09741284"
       width="1.6442313"
       height="6.5769253"
       id="rect917" />
    <path
       inkscape:export-ydpi="96"
       inkscape:export-xdpi="96"
       inkscape:connector-curvature="0"
       style="fill:#ffa72e;stroke-width:0.09741377"
       d="m 155.11024,64.951434 c -9.21759,0 -16.7166,-7.49901 -16.7166,-16.716593 0,-9.217583 7.49901,-16.71669 16.7166,-16.71669 9.21758,0 16.71659,7.499009 16.71659,16.716593 0,9.217583 -7.49891,16.71669 -16.71659,16.71669 z"
       id="path919" />
    <path
       inkscape:export-ydpi="96"
       inkscape:export-xdpi="96"
       inkscape:connector-curvature="0"
       style="fill:#f9f9f9;stroke-width:0.09741377"
       d="m 155.11024,61.66294 c -7.40433,0 -13.4281,-6.023776 -13.4281,-13.428099 0,-7.404323 6.02377,-13.428196 13.4281,-13.428196 7.40432,0 13.4281,6.023775 13.4281,13.428099 0,7.404323 -6.02378,13.428196 -13.4281,13.428196 z"
       id="path921" />
    <rect
       inkscape:export-ydpi="96"
       inkscape:export-xdpi="96"
       x="-78.860916"
       y="-187.39273"
       transform="rotate(135)"
       style="fill:#4aaee2;stroke-width:0.09741284"
       width="6.5769253"
       height="22.514933"
       id="rect925" />
    <path
       inkscape:export-ydpi="96"
       inkscape:export-xdpi="96"
       inkscape:connector-curvature="0"
       style="fill:#d8dbe2;stroke-width:0.09741377"
       d="m 173.1238,61.210063 -5.03824,5.03824 c -0.32108,0.321076 -0.84166,0.321076 -1.16273,0 -0.32108,-0.321076 -0.32108,-0.841557 0,-1.162731 l 5.03824,-5.03824 c 0.32107,-0.321076 0.84165,-0.321076 1.16273,0 0.32107,0.321076 0.32107,0.841655 0,1.162731 z"
       id="path927" />
    <g
       id="g929"
       transform="matrix(0.09741377,0,0,0.09741377,138.39345,31.518151)" />
    <g
       id="g931"
       transform="matrix(0.09741377,0,0,0.09741377,138.39345,31.518151)" />
    <g
       id="g933"
       transform="matrix(0.09741377,0,0,0.09741377,138.39345,31.518151)" />
    <g
       id="g935"
       transform="matrix(0.09741377,0,0,0.09741377,138.39345,31.518151)" />
    <g
       id="g937"
       transform="matrix(0.09741377,0,0,0.09741377,138.39345,31.518151)" />
    <g
       id="g939"
       transform="matrix(0.09741377,0,0,0.09741377,138.39345,31.518151)" />
    <g
       id="g941"
       transform="matrix(0.09741377,0,0,0.09741377,138.39345,31.518151)" />
    <g
       id="g943"
       transform="matrix(0.09741377,0,0,0.09741377,138.39345,31.518151)" />
    <g
       id="g945"
       transform="matrix(0.09741377,0,0,0.09741377,138.39345,31.518151)" />
    <g
       id="g947"
       transform="matrix(0.09741377,0,0,0.09741377,138.39345,31.518151)" />
    <g
       id="g949"
       transform="matrix(0.09741377,0,0,0.09741377,138.39345,31.518151)" />
    <g
       id="g951"
       transform="matrix(0.09741377,0,0,0.09741377,138.39345,31.518151)" />
    <g
       id="g953"
       transform="matrix(0.09741377,0,0,0.09741377,138.39345,31.518151)" />
    <g
       id="g955"
       transform="matrix(0.09741377,0,0,0.09741377,138.39345,31.518151)" />
    <g
       id="g957"
       transform="matrix(0.09741377,0,0,0.09741377,138.39345,31.518151)" />
    <g
       id="g1211"
       transform="matrix(0.21725435,0,0,0.21725435,18.957347,14.47732)"
       inkscape:export-filename="/home/srdjan/Projects/storrent/app/images/icon.png"
       inkscape:export-xdpi="96"
       inkscape:export-ydpi="96">
      <circle
         id="circle1126"
         r="192"
         cy="192"
         cx="192"
         style="fill:#ea8953" />
      <path
         id="path1128"
         d="M 370.03,263.9 210.12,103.99 c -29.28,-29.32 -76.84,-29.32 -106.12,0 -29.32,29.32 -29.32,76.84 0,106.16 L 263.886,370.036 C 312.084,350.554 350.545,312.095 370.03,263.9 Z"
         style="opacity:0.1;enable-background:new"
         inkscape:connector-curvature="0" />
      <rect
         id="rect1130"
         height="26.476"
         width="20.612"
         style="fill:#fcd462"
         transform="matrix(-0.7071,0.7071,-0.7071,-0.7071,512.0264,232.6643)"
         y="209.14"
         x="197.52" />
      <rect
         id="rect1132"
         height="26.476"
         width="20.612"
         style="fill:#f6c358"
         transform="matrix(-0.7071,0.7071,-0.7071,-0.7071,526.6236,197.5237)"
         y="194.592"
         x="212.097" />
      <path
         id="path1134"
         d="m 224.471,224.47 64.718,64.718 11.563,-11.563 c 1.663,-1.664 1.664,-4.36 0,-6.023 l -61.707,-61.707 z"
         style="fill:#3a556a"
         inkscape:connector-curvature="0" />
      <path
         id="path1136"
         d="m 209.895,239.046 61.707,61.707 c 1.663,1.663 4.36,1.663 6.022,0 l 11.564,-11.564 -64.718,-64.718 z"
         style="fill:#64798a"
         inkscape:connector-curvature="0" />
      <circle
         id="ellipse1138"
         cy="157.08"
         cx="157.088"
         style="fill:#ebf0f3"
         r="75.059998" />
      <g
         id="g1146" />
      <g
         id="g1148" />
      <g
         id="g1150" />
      <g
         id="g1152" />
      <g
         id="g1154" />
      <g
         id="g1156" />
      <g
         id="g1158" />
      <g
         id="g1160" />
      <g
         id="g1162" />
      <g
         id="g1164" />
      <g
         id="g1166" />
      <g
         id="g1168" />
      <g
         id="g1170" />
      <g
         id="g1172" />
      <g
         id="g1174" />
      <g
         id="g1176" />
    </g>
    <g
       id="g1124"
       transform="matrix(0.03567269,0,0,0.03567269,2.6809588,87.734452)"
       style="fill:#3a556a;fill-opacity:1"
       inkscape:export-filename="/home/srdjan/Projects/storrent/app/images/icon.png"
       inkscape:export-xdpi="96"
       inkscape:export-ydpi="96">
      <g
         id="g1064"
         style="fill:#3a556a;fill-opacity:1">
        <g
           id="g1062"
           style="fill:#3a556a;fill-opacity:1">
          <path
             id="path1054"
             d="m 211.233,271.523 c -4.364,0 -7.154,0.386 -8.493,0.795 v 28.337 h 8.176 c 9.283,0 15.116,-5.864 15.116,-14.761 0,-9.859 -5.832,-14.371 -14.799,-14.371 z"
             inkscape:connector-curvature="0"
             style="fill:#3a556a;fill-opacity:1" />
          <path
             id="path1056"
             d="m 120.836,305.049 c 0,18.252 7.725,32.745 20.943,32.745 13.326,0 20.83,-14.636 20.83,-33.407 0,-16.908 -7.063,-32.858 -20.83,-32.858 -13.659,-0.006 -20.943,15.026 -20.943,33.52 z"
             inkscape:connector-curvature="0"
             style="fill:#3a556a;fill-opacity:1" />
          <path
             id="path1058"
             d="m 274.98,271.523 c -4.37,0 -7.149,0.386 -8.493,0.795 v 28.337 h 8.16 c 9.303,0 15.129,-5.864 15.129,-14.761 -0.001,-9.859 -5.827,-14.371 -14.796,-14.371 z"
             inkscape:connector-curvature="0"
             style="fill:#3a556a;fill-opacity:1" />
          <path
             id="path1060"
             d="m 486.208,196.121 h -13.171 v -63.525 c 0,-0.396 -0.058,-0.795 -0.109,-1.2 -0.026,-2.52 -0.829,-4.997 -2.556,-6.96 L 364.664,3.677 C 364.626,3.646 364.601,3.635 364.579,3.602 363.95,2.898 363.216,2.312 362.436,1.806 362.202,1.652 361.976,1.523 361.735,1.387 361.062,1.022 360.348,0.715 359.603,0.494 359.414,0.442 359.236,0.36 359.037,0.308 358.237,0.118 357.409,0 356.564,0 H 96.76 C 84.901,0 75.259,9.649 75.259,21.502 V 196.115 H 62.087 c -16.968,0 -30.729,13.756 -30.729,30.733 V 386.66 c 0,16.961 13.761,30.731 30.729,30.731 H 75.253 V 526.79 c 0,11.854 9.643,21.501 21.501,21.501 H 451.53 c 11.853,0 21.501,-9.647 21.501,-21.501 V 417.392 h 13.166 c 16.966,0 30.734,-13.764 30.734,-30.731 V 226.854 c 0.007,-16.982 -13.757,-30.733 -30.723,-30.733 z M 96.76,21.502 h 249.054 v 110.006 c 0,5.94 4.823,10.751 10.751,10.751 h 94.972 V 196.12 H 96.76 Z m 290.135,295.919 v 32.096 H 374.24 v -89.718 h 15.686 l 19.475,38.473 c 5.045,9.975 9.396,20.357 12.865,30.074 h 0.226 c -0.886,-11.984 -1.218,-23.549 -1.218,-37.255 v -31.292 h 12.767 v 89.718 H 419.82 l -19.711,-39.403 c -4.819,-9.857 -9.837,-20.892 -13.538,-31.013 l -0.353,0.125 c 0.567,11.592 0.677,23.424 0.677,38.195 z m -28.121,-21.018 v 13.309 h -28.441 v 26.356 h 31.789 v 13.449 h -45.58 v -89.718 h 43.905 v 13.449 h -30.125 v 23.165 h 28.452 z m -58.479,28.074 c 2.342,11.19 4.368,21.581 5.932,25.04 h -14.216 c -1.122,-2.667 -2.906,-9.99 -5.049,-21.171 -2.121,-11.712 -5.7,-15.434 -13.546,-15.706 h -6.929 v 36.877 h -13.67 v -88.524 c 5.155,-1.05 12.874,-1.851 20.83,-1.851 10.859,0 18.239,2.129 23.29,7.182 4.135,4.128 6.487,10.383 6.487,17.963 0,11.58 -6.608,19.433 -13.648,22.499 v 0.398 c 5.364,2.395 8.613,8.653 10.519,17.293 z m -63.738,0 c 2.344,11.19 4.359,21.581 5.934,25.04 h -14.223 c -1.113,-2.667 -2.908,-9.99 -5.042,-21.171 -2.123,-11.712 -5.708,-15.434 -13.546,-15.706 h -6.94 v 36.877 h -13.659 v -88.524 c 5.145,-1.05 12.879,-1.851 20.825,-1.851 10.863,0 18.254,2.129 23.286,7.182 4.139,4.128 6.494,10.383 6.494,17.963 0,11.58 -6.612,19.433 -13.653,22.499 v 0.398 c 5.369,2.395 8.605,8.653 10.524,17.293 z M 177.165,303.72 c 0,30.069 -15.346,47.246 -36.17,47.246 -21.271,0 -34.699,-19.298 -34.699,-45.639 0,-27.571 14.54,-47 35.822,-47 22.061,0 35.047,19.835 35.047,45.393 z M 82.734,273.495 v 76.022 H 68.975 V 273.495 H 47.473 v -13.701 h 56.983 v 13.701 z M 451.536,520.968 H 96.76 V 417.392 h 354.776 z m 48.379,-247.473 h -21.718 v 76.022 h -13.774 v -76.022 h -21.5 v -13.701 h 56.992 z"
             inkscape:connector-curvature="0"
             style="fill:#3a556a;fill-opacity:1" />
        </g>
      </g>
      <g
         id="g1066"
         style="fill:#3a556a;fill-opacity:1" />
      <g
         id="g1068"
         style="fill:#3a556a;fill-opacity:1" />
      <g
         id="g1070"
         style="fill:#3a556a;fill-opacity:1" />
      <g
         id="g1072"
         style="fill:#3a556a;fill-opacity:1" />
      <g
         id="g1074"
         style="fill:#3a556a;fill-opacity:1" />
      <g
         id="g1076"
         style="fill:#3a556a;fill-opacity:1" />
      <g
         id="g1078"
         style="fill:#3a556a;fill-opacity:1" />
      <g
         id="g1080"
         style="fill:#3a556a;fill-opacity:1" />
      <g
         id="g1082"
         style="fill:#3a556a;fill-opacity:1" />
      <g
         id="g1084"
         style="fill:#3a556a;fill-opacity:1" />
      <g
         id="g1086"
         style="fill:#3a556a;fill-opacity:1" />
      <g
         id="g1088"
         style="fill:#3a556a;fill-opacity:1" />
      <g
         id="g1090"
         style="fill:#3a556a;fill-opacity:1" />
      <g
         id="g1092"
         style="fill:#3a556a;fill-opacity:1" />
      <g
         id="g1094"
         style="fill:#3a556a;fill-opacity:1" />
    </g>
    <g
       style="fill:#3a556a;fill-opacity:1"
       transform="matrix(0.03174498,0,0,0.03174498,174.7381,115.43659)"
       id="g1255">
      <g
         style="fill:#3a556a;fill-opacity:1"
         id="g1223">
        <g
           style="fill:#3a556a;fill-opacity:1"
           id="g1221">
          <path
             style="fill:#3a556a;fill-opacity:1"
             inkscape:connector-curvature="0"
             d="m 211.233,271.523 c -4.364,0 -7.154,0.386 -8.493,0.795 v 28.337 h 8.176 c 9.283,0 15.116,-5.864 15.116,-14.761 0,-9.859 -5.832,-14.371 -14.799,-14.371 z"
             id="path1213" />
          <path
             style="fill:#3a556a;fill-opacity:1"
             inkscape:connector-curvature="0"
             d="m 120.836,305.049 c 0,18.252 7.725,32.745 20.943,32.745 13.326,0 20.83,-14.636 20.83,-33.407 0,-16.908 -7.063,-32.858 -20.83,-32.858 -13.659,-0.006 -20.943,15.026 -20.943,33.52 z"
             id="path1215" />
          <path
             style="fill:#3a556a;fill-opacity:1"
             inkscape:connector-curvature="0"
             d="m 274.98,271.523 c -4.37,0 -7.149,0.386 -8.493,0.795 v 28.337 h 8.16 c 9.303,0 15.129,-5.864 15.129,-14.761 -0.001,-9.859 -5.827,-14.371 -14.796,-14.371 z"
             id="path1217" />
          <path
             style="fill:#3a556a;fill-opacity:1"
             inkscape:connector-curvature="0"
             d="m 486.208,196.121 h -13.171 v -63.525 c 0,-0.396 -0.058,-0.795 -0.109,-1.2 -0.026,-2.52 -0.829,-4.997 -2.556,-6.96 L 364.664,3.677 C 364.626,3.646 364.601,3.635 364.579,3.602 363.95,2.898 363.216,2.312 362.436,1.806 362.202,1.652 361.976,1.523 361.735,1.387 361.062,1.022 360.348,0.715 359.603,0.494 359.414,0.442 359.236,0.36 359.037,0.308 358.237,0.118 357.409,0 356.564,0 H 96.76 C 84.901,0 75.259,9.649 75.259,21.502 V 196.115 H 62.087 c -16.968,0 -30.729,13.756 -30.729,30.733 V 386.66 c 0,16.961 13.761,30.731 30.729,30.731 H 75.253 V 526.79 c 0,11.854 9.643,21.501 21.501,21.501 H 451.53 c 11.853,0 21.501,-9.647 21.501,-21.501 V 417.392 h 13.166 c 16.966,0 30.734,-13.764 30.734,-30.731 V 226.854 c 0.007,-16.982 -13.757,-30.733 -30.723,-30.733 z M 96.76,21.502 h 249.054 v 110.006 c 0,5.94 4.823,10.751 10.751,10.751 h 94.972 V 196.12 H 96.76 Z m 290.135,295.919 v 32.096 H 374.24 v -89.718 h 15.686 l 19.475,38.473 c 5.045,9.975 9.396,20.357 12.865,30.074 h 0.226 c -0.886,-11.984 -1.218,-23.549 -1.218,-37.255 v -31.292 h 12.767 v 89.718 H 419.82 l -19.711,-39.403 c -4.819,-9.857 -9.837,-20.892 -13.538,-31.013 l -0.353,0.125 c 0.567,11.592 0.677,23.424 0.677,38.195 z m -28.121,-21.018 v 13.309 h -28.441 v 26.356 h 31.789 v 13.449 h -45.58 v -89.718 h 43.905 v 13.449 h -30.125 v 23.165 h 28.452 z m -58.479,28.074 c 2.342,11.19 4.368,21.581 5.932,25.04 h -14.216 c -1.122,-2.667 -2.906,-9.99 -5.049,-21.171 -2.121,-11.712 -5.7,-15.434 -13.546,-15.706 h -6.929 v 36.877 h -13.67 v -88.524 c 5.155,-1.05 12.874,-1.851 20.83,-1.851 10.859,0 18.239,2.129 23.29,7.182 4.135,4.128 6.487,10.383 6.487,17.963 0,11.58 -6.608,19.433 -13.648,22.499 v 0.398 c 5.364,2.395 8.613,8.653 10.519,17.293 z m -63.738,0 c 2.344,11.19 4.359,21.581 5.934,25.04 h -14.223 c -1.113,-2.667 -2.908,-9.99 -5.042,-21.171 -2.123,-11.712 -5.708,-15.434 -13.546,-15.706 h -6.94 v 36.877 h -13.659 v -88.524 c 5.145,-1.05 12.879,-1.851 20.825,-1.851 10.863,0 18.254,2.129 23.286,7.182 4.139,4.128 6.494,10.383 6.494,17.963 0,11.58 -6.612,19.433 -13.653,22.499 v 0.398 c 5.369,2.395 8.605,8.653 10.524,17.293 z M 177.165,303.72 c 0,30.069 -15.346,47.246 -36.17,47.246 -21.271,0 -34.699,-19.298 -34.699,-45.639 0,-27.571 14.54,-47 35.822,-47 22.061,0 35.047,19.835 35.047,45.393 z M 82.734,273.495 v 76.022 H 68.975 V 273.495 H 47.473 v -13.701 h 56.983 v 13.701 z M 451.536,520.968 H 96.76 V 417.392 h 354.776 z m 48.379,-247.473 h -21.718 v 76.022 h -13.774 v -76.022 h -21.5 v -13.701 h 56.992 z"
             id="path1219" />
        </g>
      </g>
      <g
         style="fill:#3a556a;fill-opacity:1"
         id="g1225" />
      <g
         style="fill:#3a556a;fill-opacity:1"
         id="g1227" />
      <g
         style="fill:#3a556a;fill-opacity:1"
         id="g1229" />
      <g
         style="fill:#3a556a;fill-opacity:1"
         id="g1231" />
      <g
         style="fill:#3a556a;fill-opacity:1"
         id="g1233" />
      <g
         style="fill:#3a556a;fill-opacity:1"
         id="g1235" />
      <g
         style="fill:#3a556a;fill-opacity:1"
         id="g1237" />
      <g
         style="fill:#3a556a;fill-opacity:1"
         id="g1239" />
      <g
         style="fill:#3a556a;fill-opacity:1"
         id="g1241" />
      <g
         style="fill:#3a556a;fill-opacity:1"
         id="g1243" />
      <g
         style="fill:#3a556a;fill-opacity:1"
         id="g1245" />
      <g
         style="fill:#3a556a;fill-opacity:1"
         id="g1247" />
      <g
         style="fill:#3a556a;fill-opacity:1"
         id="g1249" />
      <g
         style="fill:#3a556a;fill-opacity:1"
         id="g1251" />
      <g
         style="fill:#3a556a;fill-opacity:1"
         id="g1253" />
    </g>
    <path
       inkscape:connector-curvature="0"
       style="fill:#030104;stroke-width:4.16005945"
       d="m 122.05841,-67.980223 c -1.81664,-22.09192 -21.1389,-38.523057 -43.151787,-36.699877 -22.01704,1.8235 -38.38937,21.215127 -36.57307,43.302917 1.40031,17.02894 13.21694,30.656892 28.63147,35.188592 l -10.40987,-34.473102 -2.9428,-9.74214 -5.20874,-17.23205 14.32913,-4.36068 7.46191,24.71884 c 2.01552,6.67431 5.38619,10.06667 10.35332,8.55131 3.93093,-1.19537 5.35893,-4.60462 5.60857,-7.14267 0.12489,-0.96378 -0.12041,-2.12271 -0.46296,-3.24848 l -8.26193,-27.35393 14.32567,-4.352037 9.425157,31.213477 c 3.79062,12.55311 11.36775,13.89513 11.36775,13.89513 0,0 -9.83319,2.99308 -13.95556,4.24191 -4.113397,1.25649 -7.554067,-6.0274 -7.554067,-6.0274 l -0.28456,0.0863 c -0.9238,3.35913 -1.83336,8.76613 -12.05254,11.87898 -0.74817,0.22503 -1.48457,0.39057 -2.21474,0.53051 l 6.09334,20.186332 c 21.447437,-2.36595 37.262217,-21.443772 35.476317,-43.161912 z"
       id="path1537"
       inkscape:export-filename="/home/srdjan/Projects/STorrent/images/icon.png"
       inkscape:export-xdpi="96"
       inkscape:export-ydpi="96" />
    <g
       id="g1404"
       transform="matrix(0.14801198,0,0,0.14795251,238.09499,-20.260274)" />
    <g
       id="g1406"
       transform="matrix(0.14801198,0,0,0.14795251,238.09499,-20.260274)" />
    <g
       id="g1408"
       transform="matrix(0.14801198,0,0,0.14795251,238.09499,-20.260274)" />
    <g
       id="g1410"
       transform="matrix(0.14801198,0,0,0.14795251,238.09499,-20.260274)" />
    <g
       id="g1412"
       transform="matrix(0.14801198,0,0,0.14795251,238.09499,-20.260274)" />
    <g
       id="g1414"
       transform="matrix(0.14801198,0,0,0.14795251,238.09499,-20.260274)" />
    <g
       id="g1416"
       transform="matrix(0.14801198,0,0,0.14795251,238.09499,-20.260274)" />
    <g
       id="g1418"
       transform="matrix(0.14801198,0,0,0.14795251,238.09499,-20.260274)" />
    <g
       id="g1420"
       transform="matrix(0.14801198,0,0,0.14795251,238.09499,-20.260274)" />
    <g
       id="g1422"
       transform="matrix(0.14801198,0,0,0.14795251,238.09499,-20.260274)" />
    <g
       id="g1424"
       transform="matrix(0.14801198,0,0,0.14795251,238.09499,-20.260274)" />
    <g
       id="g1426"
       transform="matrix(0.14801198,0,0,0.14795251,238.09499,-20.260274)" />
    <g
       id="g1428"
       transform="matrix(0.14801198,0,0,0.14795251,238.09499,-20.260274)" />
    <g
       id="g1430"
       transform="matrix(0.14801198,0,0,0.14795251,238.09499,-20.260274)" />
    <g
       id="g1432"
       transform="matrix(0.14801198,0,0,0.14795251,238.09499,-20.260274)" />
    <g
       id="g5528"
       transform="matrix(0.77196974,-0.77196974,0.77196974,0.77196974,121.729,470.26513)"
       style="fill:#ffffff">
      <g
         transform="matrix(0.26003327,0.16203669,-0.1620143,0.2600303,347.21091,-51.930121)"
         id="g5518"
         inkscape:export-filename="/home/srdjan/Projects/STorrent/images/icon.png"
         inkscape:export-xdpi="118.71169"
         inkscape:export-ydpi="118.71169"
         style="fill:#ffffff">
        <path
           style="fill:#ffffff;stroke:none;stroke-width:0.20122202"
           id="path1462"
           d="m 441.35236,70.301601 c -0.37562,-0.709079 -0.60256,-1.238666 -0.94485,-2.065922 -0.17157,-0.510617 -0.36687,-0.997749 -0.57145,-1.509827 -1.87117,-4.686881 -3.56903,-9.437495 -5.35344,-14.156042 -1.61595,-4.275476 -3.20613,-8.560372 -4.80961,-12.840851 -1.40631,-3.756567 -2.82493,-7.509514 -4.21474,-11.2735 -0.33475,-1.285809 -0.88389,-2.496273 -1.34224,-3.736377 -1.40439,-3.807422 -2.82645,-7.608036 -4.25477,-11.405425 -1.89594,-5.0371176 -3.76108,-10.0848587 -5.66488,-15.1203735 -0.38015,-1.0062268 -0.76916,-2.0106407 -1.11066,-3.0324997 -0.54257,-1.623577 0.13126,-2.9802617 1.76485,-3.5224767 0.9062,-0.302159 1.85932,-0.407866 2.79425,-0.5799367 3.5001,-0.6434838 6.99939,-1.2906004 10.49888,-1.9397264 1.62724,-0.301578 3.25202,-0.617822 4.88593,-0.885822 0.31917,-0.05248 0.645,-0.08392 0.97086,-0.08356 0.35852,3.95e-4 0.71747,0.03925 1.06982,0.131052 1.18157,0.308889 1.98496,1.02327 2.44203,2.1831616 1.91286,4.8549972 3.87966,9.68893767 5.82192,14.5318999 1.1239,2.8061339 2.2456,5.6148885 3.38683,8.4138035 0.25626,0.630135 0.37847,1.314013 0.77848,1.8848 0.93138,2.25648 1.73993,4.562697 2.85612,6.744797 1.39994,2.737485 3.16497,5.204563 5.39483,7.315531 3.28048,3.10444 6.99814,5.424305 11.52724,6.259376 1.01993,0.187691 2.02745,0.276848 3.02421,0.277945 2.45714,0.0027 4.84703,-0.531838 7.19458,-1.451618 2.10799,-0.825755 3.99304,-2.021684 5.58923,-3.617784 2.3132,-2.314422 3.84389,-5.029986 4.19245,-8.360016 0.19155,-1.826835 -0.28379,-3.488754 -1.00116,-5.104899 -2.60943,-5.886883 -5.23119,-11.7691636 -7.84284,-17.65666023 -0.50976,-1.46755177 -1.24195,-2.83561797 -1.88377,-4.24541897 -1.704,-3.7492427 -3.36089,-7.5201478 -5.02604,-11.2878578 -0.69635,-1.575298 0.0852,-3.044236 1.80109,-3.369841 3.3716,-0.64123 6.74849,-1.254497 10.12516,-1.873793 1.26013,-0.231619 2.52593,-0.440518 3.77796,-0.715764 0.4301,-0.0944 0.85158,-0.14482 1.26467,-0.144365 0.82778,9.13e-4 1.62234,0.206849 2.38314,0.676108 0.48685,0.225093 0.71895,0.666026 0.9426,1.113191 1.11402,2.244212 2.14774,4.52534 3.20864,6.79282 1.29748,2.774364 2.60845,5.5439231 3.88903,8.3281148 0.3521,0.766151 0.59005,1.586652 1.08648,2.2858044 1.97461,4.2424988 3.96192,8.4775732 5.96169,12.7086302 1.29101,2.7301286 2.45519,5.5252496 4.1397,8.0595946 1.23627,1.859769 2.56707,3.6129 4.57751,4.724045 1.28896,0.712494 2.63259,1.124298 4.08473,1.125897 0.24208,2.67e-4 0.48779,-0.0035 0.73549,-0.03418 2.59613,-0.323838 3.35723,-0.704171 3.67514,-0.802328 0.0571,-0.01577 0.11304,-0.03487 0.16952,-0.05171 -0.001,0.008 -0.003,0.01729 -0.004,0.02555 3.93356,-23.26435953 -5.78409,-47.800243 -26.73521,-61.692216 -10.15119,-6.729303 -21.924,-10.29403 -34.04676,-10.307377 -20.74429,-0.02284 -39.95704,10.242586 -51.39415,27.459867 -18.76594,28.2521034 -10.97266,66.527705 17.37161,85.321908 4.64899,3.083432 9.63945,5.499398 14.84723,7.216373 -0.68179,-0.224908 -1.35897,-0.463278 -2.03314,-0.712114 z"
           inkscape:connector-curvature="0" />
        <path
           style="fill:#ffffff;stroke-width:0.20093492"
           id="path1466"
           d="m 518.76884,37.118303 c -2.80366,0.95665 -5.46925,1.593211 -7.93975,1.504598 -1.84017,-0.06636 -3.69137,-0.248765 -5.54963,-0.751907 -3.35019,-0.907017 -6.27097,-2.635256 -8.97858,-4.75894 -0.21138,-0.165164 -0.42516,-0.328122 -0.63454,-0.496106 -0.18003,-0.145069 -0.30341,-0.222033 -0.39503,-0.222033 -0.12182,0 -0.18748,0.137037 -0.2558,0.435621 -0.2596,1.134888 -0.65906,2.218534 -1.14634,3.27102 -0.82162,1.775067 -1.88317,3.397816 -3.19103,4.850373 -4.86505,5.399318 -11.09843,8.168007 -18.11952,9.448164 -1.54759,0.281907 -3.10242,0.379564 -4.65866,0.379564 -0.75411,0 -1.50904,-0.02274 -2.26294,-0.05852 -2.05014,-0.09682 -4.04784,-0.57025 -5.95329,-1.368971 -0.25902,-0.108655 -0.51078,-0.246942 -0.87326,-0.298783 0.33917,0.997639 0.73883,1.90024 1.09951,2.816301 2.20607,5.599048 4.58291,11.125162 7.1145,16.582558 0.55659,1.199377 1.10654,2.40418 1.70072,3.58668 0.004,0.008 0.009,0.01729 0.0133,0.02554 0.39785,0.781431 0.40771,1.040037 0.67796,1.5269 17.93766,-2.051348 34.12759,-11.850935 44.24345,-27.09386 2.21049,-3.330495 4.04804,-6.802042 5.53234,-10.361605 -0.14186,0.335756 -0.28773,0.673732 -0.42296,0.983368 z"
           inkscape:connector-curvature="0" />
        <path
           style="fill:#ffffff;stroke-width:0.15108605"
           id="path1468"
           d="m 498.47544,22.821407 c 0.0223,-0.0551 0.0455,-0.11029 0.0677,-0.16574 -0.0222,0.0548 -0.0446,0.10969 -0.0677,0.16574 z"
           inkscape:connector-curvature="0" />
      </g>
      <path
         inkscape:connector-curvature="0"
         id="path1821"
         d="m 463.74869,44.725423 -1.89547,13.887744"
         style="fill:#ffffff;fill-opacity:1;stroke:#ffffff;stroke-width:6.89019585;stroke-linecap:round;stroke-linejoin:round;stroke-miterlimit:4;stroke-dasharray:none;stroke-opacity:1"
         inkscape:export-filename="/home/srdjan/Projects/STorrent/images/icon.png"
         inkscape:export-xdpi="118.71169"
         inkscape:export-ydpi="118.71169" />
    </g>
    <rect
       style="opacity:1;fill:#345065;fill-opacity:1;stroke:none;stroke-width:32.13641739;stroke-linecap:round;stroke-linejoin:round;stroke-miterlimit:4;stroke-dasharray:none;stroke-opacity:1"
       id="rect5534"
       width="150"
       height="150"
       x="255.72156"
       y="70.686829"
       inkscape:export-filename="/home/srdjan/Projects/STorrent/images/icon.png"
       inkscape:export-xdpi="118"
       inkscape:export-ydpi="118"
       ry="16"
       rx="16" />
    <g
       style="fill:#ffffff"
       transform="matrix(1.9028492,1.5103759,-1.5105091,1.9026867,-506.98757,-616.51976)"
       id="g5546"
       inkscape:export-filename="/home/srdjan/Projects/STorrent/images/icon.png"
       inkscape:export-xdpi="118"
       inkscape:export-ydpi="118">
      <g
         style="fill:#ffffff"
         inkscape:export-ydpi="118.71169"
         inkscape:export-xdpi="118.71169"
         inkscape:export-filename="/home/srdjan/Projects/STorrent/images/icon.png"
         id="g5542"
         transform="matrix(0.26003327,0.16203669,-0.1620143,0.2600303,347.21091,-51.930121)">
        <path
           inkscape:connector-curvature="0"
           d="m 441.35236,70.301601 c -0.37562,-0.709079 -0.60256,-1.238666 -0.94485,-2.065922 -0.17157,-0.510617 -0.36687,-0.997749 -0.57145,-1.509827 -1.87117,-4.686881 -3.56903,-9.437495 -5.35344,-14.156042 -1.61595,-4.275476 -3.20613,-8.560372 -4.80961,-12.840851 -1.40631,-3.756567 -2.82493,-7.509514 -4.21474,-11.2735 -0.33475,-1.285809 -0.88389,-2.496273 -1.34224,-3.736377 -1.40439,-3.807422 -2.82645,-7.608036 -4.25477,-11.405425 -1.89594,-5.0371176 -3.76108,-10.0848587 -5.66488,-15.1203735 -0.38015,-1.0062268 -0.76916,-2.0106407 -1.11066,-3.0324997 -0.54257,-1.623577 0.13126,-2.9802617 1.76485,-3.5224767 0.9062,-0.302159 1.85932,-0.407866 2.79425,-0.5799367 3.5001,-0.6434838 6.99939,-1.2906004 10.49888,-1.9397264 1.62724,-0.301578 3.25202,-0.617822 4.88593,-0.885822 0.31917,-0.05248 0.645,-0.08392 0.97086,-0.08356 0.35852,3.95e-4 0.71747,0.03925 1.06982,0.131052 1.18157,0.308889 1.98496,1.02327 2.44203,2.1831616 1.91286,4.8549972 3.87966,9.68893767 5.82192,14.5318999 1.1239,2.8061339 2.2456,5.6148885 3.38683,8.4138035 0.25626,0.630135 0.37847,1.314013 0.77848,1.8848 0.93138,2.25648 1.73993,4.562697 2.85612,6.744797 1.39994,2.737485 3.16497,5.204563 5.39483,7.315531 3.28048,3.10444 6.99814,5.424305 11.52724,6.259376 1.01993,0.187691 2.02745,0.276848 3.02421,0.277945 2.45714,0.0027 4.84703,-0.531838 7.19458,-1.451618 2.10799,-0.825755 3.99304,-2.021684 5.58923,-3.617784 2.3132,-2.314422 3.84389,-5.029986 4.19245,-8.360016 0.19155,-1.826835 -0.28379,-3.488754 -1.00116,-5.104899 -2.60943,-5.886883 -5.23119,-11.7691636 -7.84284,-17.65666023 -0.50976,-1.46755177 -1.24195,-2.83561797 -1.88377,-4.24541897 -1.704,-3.7492427 -3.36089,-7.5201478 -5.02604,-11.2878578 -0.69635,-1.575298 0.0852,-3.044236 1.80109,-3.369841 3.3716,-0.64123 6.74849,-1.254497 10.12516,-1.873793 1.26013,-0.231619 2.52593,-0.440518 3.77796,-0.715764 0.4301,-0.0944 0.85158,-0.14482 1.26467,-0.144365 0.82778,9.13e-4 1.62234,0.206849 2.38314,0.676108 0.48685,0.225093 0.71895,0.666026 0.9426,1.113191 1.11402,2.244212 2.14774,4.52534 3.20864,6.79282 1.29748,2.774364 2.60845,5.5439231 3.88903,8.3281148 0.3521,0.766151 0.59005,1.586652 1.08648,2.2858044 1.97461,4.2424988 3.96192,8.4775732 5.96169,12.7086302 1.29101,2.7301286 2.45519,5.5252496 4.1397,8.0595946 1.23627,1.859769 2.56707,3.6129 4.57751,4.724045 1.28896,0.712494 2.63259,1.124298 4.08473,1.125897 0.24208,2.67e-4 0.48779,-0.0035 0.73549,-0.03418 2.59613,-0.323838 3.35723,-0.704171 3.67514,-0.802328 0.0571,-0.01577 0.11304,-0.03487 0.16952,-0.05171 -0.001,0.008 -0.003,0.01729 -0.004,0.02555 3.93356,-23.26435953 -5.78409,-47.800243 -26.73521,-61.692216 -10.15119,-6.729303 -21.924,-10.29403 -34.04676,-10.307377 -20.74429,-0.02284 -39.95704,10.242586 -51.39415,27.459867 -18.76594,28.2521034 -10.97266,66.527705 17.37161,85.321908 4.64899,3.083432 9.63945,5.499398 14.84723,7.216373 -0.68179,-0.224908 -1.35897,-0.463278 -2.03314,-0.712114 z"
           id="path5536"
           style="fill:#ffffff;stroke:none;stroke-width:0.20122202" />
        <path
           inkscape:connector-curvature="0"
           d="m 518.76884,37.118303 c -2.80366,0.95665 -5.46925,1.593211 -7.93975,1.504598 -1.84017,-0.06636 -3.69137,-0.248765 -5.54963,-0.751907 -3.35019,-0.907017 -6.27097,-2.635256 -8.97858,-4.75894 -0.21138,-0.165164 -0.42516,-0.328122 -0.63454,-0.496106 -0.18003,-0.145069 -0.30341,-0.222033 -0.39503,-0.222033 -0.12182,0 -0.18748,0.137037 -0.2558,0.435621 -0.2596,1.134888 -0.65906,2.218534 -1.14634,3.27102 -0.82162,1.775067 -1.88317,3.397816 -3.19103,4.850373 -4.86505,5.399318 -11.09843,8.168007 -18.11952,9.448164 -1.54759,0.281907 -3.10242,0.379564 -4.65866,0.379564 -0.75411,0 -1.50904,-0.02274 -2.26294,-0.05852 -2.05014,-0.09682 -4.04784,-0.57025 -5.95329,-1.368971 -0.25902,-0.108655 -0.51078,-0.246942 -0.87326,-0.298783 0.33917,0.997639 0.73883,1.90024 1.09951,2.816301 2.20607,5.599048 4.58291,11.125162 7.1145,16.582558 0.55659,1.199377 1.10654,2.40418 1.70072,3.58668 0.004,0.008 0.009,0.01729 0.0133,0.02554 0.39785,0.781431 0.40771,1.040037 0.67796,1.5269 17.93766,-2.051348 34.12759,-11.850935 44.24345,-27.09386 2.21049,-3.330495 4.04804,-6.802042 5.53234,-10.361605 -0.14186,0.335756 -0.28773,0.673732 -0.42296,0.983368 z"
           id="path5538"
           style="fill:#ffffff;stroke-width:0.20093492" />
        <path
           inkscape:connector-curvature="0"
           d="m 498.47544,22.821407 c 0.0223,-0.0551 0.0455,-0.11029 0.0677,-0.16574 -0.0222,0.0548 -0.0446,0.10969 -0.0677,0.16574 z"
           id="path5540"
           style="fill:#ffffff;stroke-width:0.15108605" />
      </g>
      <path
         inkscape:export-ydpi="118.71169"
         inkscape:export-xdpi="118.71169"
         inkscape:export-filename="/home/srdjan/Projects/STorrent/images/icon.png"
         style="fill:#ffffff;fill-opacity:1;stroke:#ffffff;stroke-width:6.89019585;stroke-linecap:round;stroke-linejoin:round;stroke-miterlimit:4;stroke-dasharray:none;stroke-opacity:1"
         d="m 463.74869,44.725423 -1.89547,13.887744"
         id="path5544"
         inkscape:connector-curvature="0" />
    </g>
  </g>
</svg>
