<?xml version="1.0" encoding="UTF-8" standalone="no"?>
<svg
   xmlns:dc="http://purl.org/dc/elements/1.1/"
   xmlns:cc="http://creativecommons.org/ns#"
   xmlns:rdf="http://www.w3.org/1999/02/22-rdf-syntax-ns#"
   xmlns:svg="http://www.w3.org/2000/svg"
   xmlns="http://www.w3.org/2000/svg"
   xmlns:sodipodi="http://sodipodi.sourceforge.net/DTD/sodipodi-0.dtd"
   xmlns:inkscape="http://www.inkscape.org/namespaces/inkscape"
   version="1.1"
   id="Capa_1"
   x="0px"
   y="0px"
   viewBox="0 0 512.001 512.001"
   style="enable-background:new 0 0 512.001 512.001;"
   xml:space="preserve"
   width="512px"
   height="512px"
   class=""
   sodipodi:docname="clear.svg"
   inkscape:version="0.92.3 (2405546, 2018-03-11)"><metadata
   id="metadata15"><rdf:RDF><cc:Work
       rdf:about=""><dc:format>image/svg+xml</dc:format><dc:type
         rdf:resource="http://purl.org/dc/dcmitype/StillImage" /></cc:Work></rdf:RDF></metadata><defs
   id="defs13" /><sodipodi:namedview
   pagecolor="#ffffff"
   bordercolor="#666666"
   borderopacity="1"
   objecttolerance="10"
   gridtolerance="10"
   guidetolerance="10"
   inkscape:pageopacity="0"
   inkscape:pageshadow="2"
   inkscape:window-width="1850"
   inkscape:window-height="1016"
   id="namedview11"
   showgrid="false"
   inkscape:zoom="0.4609375"
   inkscape:cx="-143.18644"
   inkscape:cy="256"
   inkscape:window-x="70"
   inkscape:window-y="27"
   inkscape:window-maximized="1"
   inkscape:current-layer="g4" /><g
   id="g8"
   transform="matrix(1,0,0,1.0000015,0,-7.625463e-4)"><g
     id="g6">
	<g
   id="g4">
		<path
   d="M 283.09271,255.96793 495.59017,43.490509 c 7.48147,-7.480735 7.48147,-19.609277 0,-27.089056 -7.48148,-7.4797785 -19.6112,-7.4807365 -27.09174,0 L 256.00003,228.87887 43.502566,16.401453 c -7.481475,-7.4807365 -19.611215,-7.4807365 -27.091733,0 -7.4805177,7.480737 -7.4814755,19.609279 0,27.089056 L 228.9083,255.96697 16.410833,468.44441 c -7.4814755,7.48073 -7.4814755,19.60928 0,27.08905 3.740259,3.73989 8.643302,5.60936 13.546346,5.60936 4.903043,0 9.805129,-1.86947 13.546345,-5.60936 L 256.00003,283.05699 468.49748,495.53346 c 3.74026,3.73989 8.6433,5.60936 13.54635,5.60936 4.90303,0 9.80512,-1.86947 13.54634,-5.60936 7.48147,-7.48073 7.48147,-19.60928 0,-27.08905 z"
   data-original="#000000"
   class="active-path"
   data-old_color="#000000"
   id="path2"
   inkscape:connector-curvature="0"
   style="fill:#ced4da;fill-opacity:1;stroke:#ced4da;stroke-width:21.73641396;stroke-miterlimit:4;stroke-dasharray:none" />
	</g>
</g></g> </svg>