<?xml version="1.0" encoding="UTF-8" standalone="no"?>
<svg
   xmlns:dc="http://purl.org/dc/elements/1.1/"
   xmlns:cc="http://creativecommons.org/ns#"
   xmlns:rdf="http://www.w3.org/1999/02/22-rdf-syntax-ns#"
   xmlns:svg="http://www.w3.org/2000/svg"
   xmlns="http://www.w3.org/2000/svg"
   xmlns:sodipodi="http://sodipodi.sourceforge.net/DTD/sodipodi-0.dtd"
   xmlns:inkscape="http://www.inkscape.org/namespaces/inkscape"
   height="512px"
   viewBox="0 0 512 512"
   width="512px"
   version="1.1"
   id="svg10"
   sodipodi:docname="download.svg"
   inkscape:version="0.92.3 (2405546, 2018-03-11)">
  <metadata
     id="metadata16">
    <rdf:RDF>
      <cc:Work
         rdf:about="">
        <dc:format>image/svg+xml</dc:format>
        <dc:type
           rdf:resource="http://purl.org/dc/dcmitype/StillImage" />
        <dc:title></dc:title>
      </cc:Work>
    </rdf:RDF>
  </metadata>
  <defs
     id="defs14" />
  <sodipodi:namedview
     pagecolor="#ffffff"
     bordercolor="#666666"
     borderopacity="1"
     objecttolerance="10"
     gridtolerance="10"
     guidetolerance="10"
     inkscape:pageopacity="0"
     inkscape:pageshadow="2"
     inkscape:window-width="1850"
     inkscape:window-height="1016"
     id="namedview12"
     showgrid="false"
     inkscape:zoom="0.4609375"
     inkscape:cx="-144.27119"
     inkscape:cy="252.74576"
     inkscape:window-x="70"
     inkscape:window-y="27"
     inkscape:window-maximized="1"
     inkscape:current-layer="g8" />
  <g
     id="g8">
    <g
       id="g4328"
       transform="matrix(0.9796251,0,0,0.9796251,8.1548493,2.2770552)"
       style="stroke:#1a1a1a;stroke-width:16.579422;stroke-miterlimit:4;stroke-dasharray:none">
      <path
         inkscape:connector-curvature="0"
         style="fill:#1a1a1a;stroke:#1a1a1a;stroke-width:16.579422;stroke-miterlimit:4;stroke-dasharray:none"
         id="path2"
         data-old_color="#000000"
         class="active-path"
         data-original="#000000"
         d="m 252.99999,364.43253 c -8.72973,0 -15.8146,-7.08512 -15.8146,-15.81466 V 21.77996 c 0,-8.729729 7.08487,-15.8146704 15.8146,-15.8146704 8.72964,0 15.8146,7.0849414 15.8146,15.8146704 v 326.83791 c 0,8.72954 -7.08496,15.81466 -15.8146,15.81466 z m 0,0" />
      <path
         inkscape:connector-curvature="0"
         style="fill:#1a1a1a;stroke:#1a1a1a;stroke-width:16.579422;stroke-miterlimit:4;stroke-dasharray:none"
         id="path4"
         data-old_color="#000000"
         class="active-path"
         data-original="#000000"
         d="m 252.99999,364.43253 c -4.05025,0 -8.0966,-1.54055 -11.17767,-4.64109 l -84.34346,-84.34345 c -6.17778,-6.17774 -6.17778,-16.19317 0,-22.37452 6.1775,-6.17772 16.19287,-6.17772 22.37449,0 l 73.16597,73.16987 73.16986,-73.16987 c 6.17767,-6.17772 16.19685,-6.17772 22.37452,0 6.17767,6.18135 6.17767,16.19678 0,22.37452 l -84.34745,84.34345 c -3.11966,3.10054 -7.16601,4.64109 -11.21626,4.64109 z m 0,0" />
      <path
         inkscape:connector-curvature="0"
         style="fill:#1a1a1a;stroke:#1a1a1a;stroke-width:16.579422;stroke-miterlimit:4;stroke-dasharray:none"
         id="path6"
         data-old_color="#000000"
         class="active-path"
         data-original="#000000"
         d="M 448.04632,512.0348 H 57.953665 c -31.988412,0 -57.98841421,-25.99999 -57.98841421,-57.98839 V 359.1584 c 0,-8.72989 7.08494171,-15.81467 15.81466821,-15.81467 8.729731,0 15.814666,7.08478 15.814666,15.81467 v 94.88801 c 0,14.52894 11.830124,26.35909 26.35908,26.35909 H 448.04632 c 14.52892,0 26.35905,-11.83015 26.35905,-26.35909 V 359.1584 c 0,-8.72989 7.08494,-15.81467 15.8147,-15.81467 8.7297,0 15.81468,7.08478 15.81468,15.81467 v 94.88801 c 0,31.9884 -26.00006,57.98839 -57.98843,57.98839 z m 0,0" />
    </g>
  </g>
</svg>
